<svg width="37" height="33" viewBox="0 0 37 33" fill="none" xmlns="http://www.w3.org/2000/svg">
<g id="logos:facebook" clip-path="url(#clip0_76_80)">
<path id="Vector" d="M37 16.5C37 7.38736 28.7172 0 18.5 0C8.2828 0 0 7.38736 0 16.5C0 24.7356 6.76522 31.5618 15.6094 32.7996V21.2695H10.9121V16.5H15.6094V12.8648C15.6094 8.72953 18.3714 6.44531 22.5972 6.44531C24.6212 6.44531 26.7383 6.76758 26.7383 6.76758V10.8281H24.4055C22.1074 10.8281 21.3906 12.1 21.3906 13.405V16.5H26.5215L25.7013 21.2695H21.3906V32.7996C30.2348 31.5618 37 24.7357 37 16.5Z" fill="#1877F2"/>
<path id="Vector_2" d="M25.7013 21.2695L26.5215 16.5H21.3906V13.405C21.3906 12.0999 22.1074 10.8281 24.4055 10.8281H26.7383V6.76758C26.7383 6.76758 24.6212 6.44531 22.597 6.44531C18.3714 6.44531 15.6094 8.72953 15.6094 12.8648V16.5H10.9121V21.2695H15.6094V32.7996C16.5656 32.9332 17.5321 33.0002 18.5 33C19.4679 33.0003 20.4344 32.9332 21.3906 32.7996V21.2695H25.7013Z" fill="white"/>
</g>
<defs>
<clipPath id="clip0_76_80">
<rect width="37" height="33" fill="white"/>
</clipPath>
</defs>
</svg>
