<svg width="169" height="245" viewBox="0 0 169 245" fill="none" xmlns="http://www.w3.org/2000/svg">
<path fill-rule="evenodd" clip-rule="evenodd" d="M77.5538 297.948C76.7048 297.468 75.9771 297.168 75.3101 296.808C71.9142 295.19 68.6396 293.331 65.9714 290.692C63.182 287.934 60.5744 284.996 57.9062 282.118C56.6328 280.799 55.4806 279.36 54.2071 278.041C51.1145 274.683 47.3547 272.164 43.1705 270.246C42.1598 269.766 41.1289 269.326 40.0778 268.926C36.1362 267.367 32.4371 265.389 28.8593 263.23C26.1911 261.611 23.4016 260.052 20.6122 258.673C15.3971 256.095 9.9394 255.555 4.23917 256.694C-2.43132 258.014 -8.79859 260.232 -14.6807 263.59C-18.7437 265.988 -22.6853 268.507 -26.7482 271.025C-27.2334 271.325 -27.7791 271.625 -28.2643 272.044C-29.2952 272.884 -30.3261 273.004 -31.5995 272.404C-34.6922 271.025 -37.9668 270.426 -41.302 270.246C-41.8478 270.186 -42.3329 270.126 -42.8787 270.066C-42.9393 270.066 -43 270.006 -43.0606 269.946C-42.3936 268.986 -42.3936 268.986 -41.4839 268.567C-38.937 267.367 -36.3295 266.288 -33.9039 264.909C-30.2048 262.691 -26.5663 260.232 -22.9279 257.774C-21.897 257.054 -21.048 255.975 -20.1384 255.075C-19.0469 253.936 -18.016 252.797 -16.8032 251.718C-12.8615 248.18 -8.13154 246.621 -2.8558 246.861C0.661365 246.981 4.11788 247.76 7.51376 248.66C14.7502 250.618 22.0271 250.698 29.3444 248.899C30.9211 248.48 32.5584 248.06 34.1351 247.64C39.2289 246.201 43.9588 243.983 48.9314 242.184C49.1133 242.124 49.2952 241.884 49.6591 241.644C49.2952 241.464 49.0527 241.224 48.7495 241.164C46.0813 240.505 43.6556 239.366 41.3513 237.867C40.9875 237.627 40.6236 237.387 40.2598 237.147C34.4989 233.549 28.3742 232.83 21.8856 234.569C17.1556 235.828 12.8501 237.926 8.72657 240.385C6.54351 241.704 4.36044 243.003 2.17738 244.282C1.51033 244.702 0.782642 245.002 -0.0663268 244.822C-5.46335 243.923 -10.4965 245.062 -15.2265 247.58C-15.2872 247.64 -15.4084 247.58 -15.651 247.58C-15.5904 247.22 -15.5904 246.921 -15.4084 246.621C-11.6487 240.325 -9.04116 233.549 -6.85809 226.594C-5.40272 222.157 -3.76542 217.72 -2.18876 213.342C-1.70363 211.783 -0.79402 210.524 0.358148 209.445C8.30209 201.89 17.6408 197.812 28.8593 198.472C32.0733 198.652 35.2872 199.132 38.4405 199.911C41.8364 200.691 45.2323 201.65 48.6282 202.369C51.9634 203.089 55.3593 203.808 58.6945 204.228C61.1202 204.588 63.6064 204.588 66.0321 204.528C71.6919 204.448 76.8867 202.829 81.6167 199.671C84.4062 197.872 87.135 196.073 89.9852 194.335C93.9268 192.056 98.1717 190.737 102.659 190.317C104.66 190.077 106.661 189.957 108.662 189.778C112.725 189.358 116.606 188.518 120.306 186.839C123.156 185.52 125.703 183.841 128.007 181.863C130.857 179.404 133.586 176.886 136.375 174.367C139.468 171.609 142.803 169.271 146.32 167.112C152.445 163.335 158.994 160.516 165.847 158.238C166.635 157.998 167.484 157.638 168.272 157.338C168.333 157.338 168.394 157.219 168.515 157.039C167.727 156.979 167.06 156.859 166.392 156.859C162.633 156.799 158.873 156.679 155.053 156.679C147.776 156.679 140.863 155.18 134.314 151.822C131.16 150.143 127.886 148.644 124.55 147.325C116.667 144.147 108.42 143.607 100.052 144.986C97.4439 145.406 94.9577 146.426 92.5927 147.505C91.2586 148.164 89.9245 148.764 88.5298 149.364C84.77 151.043 80.8284 152.122 76.7048 152.721C73.4302 153.141 70.1556 153.741 66.881 154.4C63.0607 155.12 59.4829 156.499 56.0263 158.178C51.5996 160.396 47.9005 163.574 44.444 167.052C37.9554 173.468 32.9829 181.023 28.738 189.058C27.4646 191.337 26.3124 193.675 25.0389 196.073C20.9154 196.553 16.7311 196.973 12.7895 198.592C8.96913 200.211 5.45197 202.369 1.75289 204.948C1.75289 203.689 2.23802 203.029 2.54122 202.369C6.84671 193.495 12.3044 185.34 19.0355 178.085C22.2495 174.547 25.5847 171.13 28.6774 167.472C30.9211 164.834 32.9829 161.955 34.8627 159.077C39.0469 152.721 44.8078 148.404 51.7815 145.646C55.7231 144.087 59.7861 143.128 64.0309 142.768C67.2449 142.528 70.4588 142.168 73.7334 141.868C74.825 141.808 75.9771 141.629 77.1293 141.569C82.5263 141.029 87.2563 138.87 91.3192 135.393C95.9279 131.555 100.415 127.538 104.963 123.58C106.5 122.261 108.016 120.942 109.511 119.623C109.754 119.443 109.936 119.143 110.3 118.723C109.815 118.544 109.511 118.364 109.269 118.364C104.781 118.004 100.294 118.064 95.9279 119.083C92.5927 119.863 89.1968 120.282 85.8009 120.522C83.7998 120.702 81.7987 121.002 79.7975 121.302C75.0675 122.081 71.1259 124.36 67.5481 127.478C62.9394 131.555 59.119 136.232 56.1476 141.808C50.1442 143.547 44.3833 145.946 39.3502 150.503C39.4108 149.843 39.3502 149.484 39.4108 149.184C40.7449 145.586 42.0183 141.988 43.4737 138.511C45.3536 134.073 48.325 130.476 52.0847 127.478C54.672 125.439 57.32 123.46 60.0286 121.542C65.0618 117.884 70.0344 114.226 74.5218 109.909C80.3433 104.393 85.1945 98.2766 88.5298 90.9613C92.1076 83.3462 93.1385 75.4313 91.4405 67.1567C90.2883 61.4004 88.5298 55.8839 86.6499 50.4274C84.6488 44.4913 82.587 38.6151 80.7071 32.6789C78.2208 24.5841 77.008 16.3095 76.7048 7.85492C76.5835 5.33654 76.4016 2.87813 76.2803 0.419715C75.5527 0.119908 75.3707 0.599599 75.1282 0.839444C69.7918 6.9555 65.5469 13.6712 62.4542 21.1064C61.0595 24.4642 59.6041 27.822 58.3307 31.2398C55.9657 37.8356 52.0847 43.352 46.9302 48.1489C44.3833 50.4874 41.8971 52.9458 39.5927 55.5841C33.7106 62.3598 29.9508 70.1547 29.1625 79.2089C28.6167 85.265 30.0721 90.9013 32.9829 96.1779C35.1659 100.075 37.6522 103.733 40.381 107.271C42.5035 110.089 44.5046 113.027 46.1419 116.205C47.1728 118.124 48.0218 120.162 48.3856 122.261C48.6282 123.46 48.6282 124.66 48.6888 125.919C48.7293 126.878 48.3856 127.718 47.6579 128.437C44.0195 131.915 41.7758 136.172 40.0172 140.729C39.3501 142.528 38.6225 144.267 38.0767 146.126C35.4691 154.76 30.6785 162.135 24.5538 168.731C21.4005 172.209 18.1865 175.627 15.0332 179.164C7.45313 187.799 1.81353 197.632 -2.61324 208.186C-5.09951 214.002 -7.22194 219.998 -9.1018 226.054C-10.6785 231.151 -12.4977 236.248 -14.9839 241.044C-17.8947 246.801 -21.4725 252.077 -26.2025 256.634C-29.1739 259.453 -32.5698 261.791 -36.2688 263.59C-40.635 265.749 -45.183 267.667 -49.6704 269.646C-49.913 269.766 -50.2769 269.826 -50.8833 270.066C-50.6407 269.526 -50.6407 269.166 -50.4588 268.986C-46.1533 264.729 -43.667 259.573 -41.9691 253.936C-41.1201 251.178 -40.2105 248.48 -39.3615 245.721C-37.6029 240.325 -34.9954 235.348 -31.4176 230.851C-27.3547 225.814 -23.1704 220.778 -19.0469 215.681C-16.8032 212.923 -14.6201 210.104 -12.8615 206.986C-11.4668 204.528 -10.1327 201.95 -9.04116 199.311C-5.64528 191.037 -5.40272 182.642 -8.73796 174.248C-10.3753 170.11 -12.1945 166.093 -13.9531 162.015C-14.9839 159.557 -16.0755 157.099 -17.0457 154.58C-18.865 149.843 -19.8352 144.926 -19.8959 139.89C-19.8959 137.731 -19.8352 135.573 -19.8352 133.414C-19.8352 130.416 -19.8352 127.478 -19.9565 124.54C-20.0778 118.064 -22.2002 112.188 -25.3535 106.551C-27.9004 102.114 -30.4473 97.677 -32.6304 93.0599C-34.0858 90.0019 -35.6018 86.9439 -37.4817 84.1257C-37.9062 83.4062 -38.4519 82.7466 -38.937 82.087C-39.2402 82.2669 -39.4828 82.3269 -39.4828 82.4468C-40.2105 87.5435 -42.4542 92.0406 -45.2437 96.2979C-46.881 98.7563 -48.7002 101.095 -50.3981 103.493C-52.5206 106.551 -54.7643 109.549 -56.7048 112.727C-61.556 120.642 -63.8604 129.277 -63.4965 138.511C-63.254 143.607 -61.9199 148.404 -60.1007 153.141C-59.0091 155.899 -58.0389 158.658 -57.4325 161.536C-56.5835 165.493 -56.4622 169.451 -57.4931 173.408C-58.3421 176.686 -59.1911 179.964 -60.04 183.242C-62.2231 191.337 -61.3135 199.191 -57.5537 206.687C-56.4622 208.905 -55.31 211.064 -53.9759 213.043C-50.0343 218.799 -45.9714 224.435 -42.0297 230.132C-41.0595 231.511 -40.0892 232.83 -39.2402 234.269C-38.3306 235.768 -38.2093 237.147 -39.0583 238.886C-40.4531 242.064 -41.5446 245.362 -42.6968 248.6C-43.4245 250.638 -44.0309 252.737 -44.6373 254.836C-46.3959 260.712 -49.913 265.509 -54.4004 269.706C-57.1899 272.224 -60.1613 274.443 -63.5572 276.122C-65.3764 276.961 -67.0137 278.101 -68.7116 279.06C-69.2574 278.76 -69.0755 278.4 -68.8936 278.101C-68.7723 277.801 -68.5904 277.501 -68.4084 277.201C-66.286 273.184 -65.0126 268.867 -64.8306 264.309C-64.6487 260.352 -64.3455 256.514 -63.4359 252.677C-62.7688 249.919 -62.0412 247.161 -61.2528 244.402C-60.5858 241.884 -59.8581 239.366 -59.191 236.847C-57.9176 231.87 -57.5537 226.774 -57.857 221.617C-57.9176 220.058 -58.2208 218.559 -58.7059 217.06C-59.2517 215.261 -59.7368 213.402 -60.2826 211.603C-60.4039 211.124 -60.7677 210.704 -61.0709 210.164C-61.4954 210.644 -61.738 210.944 -61.9805 211.304C-63.4359 213.522 -65.2551 215.381 -67.1956 217.18C-71.4405 221.017 -74.1087 225.874 -75.564 231.331C-76.9588 236.727 -77.2013 242.244 -76.2311 247.82C-75.5034 251.718 -74.6544 255.615 -73.381 259.393C-72.7139 261.551 -72.1075 263.71 -71.5011 265.868C-70.4096 269.706 -70.6521 273.424 -72.2288 277.081C-73.9874 281.279 -76.4737 284.996 -79.8089 288.114C-85.3878 293.451 -90.2997 299.267 -94.4233 305.803C-94.9691 306.582 -95.3936 307.422 -95.818 308.261C-96 308.741 -95.818 309.22 -95.3936 309.4C-95.151 309.52 -94.6659 309.46 -94.4233 309.28C-94.0595 308.981 -93.6956 308.501 -93.4531 308.081C-89.0465 301.485 -83.9931 295.409 -78.2929 289.853C-71.9256 283.617 -64.7093 278.76 -56.5229 275.103C-55.31 274.623 -54.0972 274.143 -52.945 273.544C-51.5503 272.824 -50.1556 272.524 -48.6396 272.524C-46.5778 272.524 -44.5766 272.464 -42.5755 272.464C-37.0572 272.524 -32.0846 274.143 -27.4759 277.141C-25.4748 278.52 -23.5343 279.959 -21.4725 281.338C-18.6224 283.137 -15.7723 284.996 -12.8009 286.675C-8.25283 289.313 -3.21965 290.393 2.0561 290.273C4.36045 290.213 6.60415 290.033 8.90851 289.913C11.698 289.733 14.4875 289.553 17.2769 289.373C22.492 289.014 27.5858 289.793 32.4977 291.652C36.6213 293.151 40.6842 294.71 44.8078 296.149C49.4772 297.888 54.3284 299.207 59.301 299.807C62.8788 300.226 66.4565 300.286 70.0343 299.687C71.9142 299.387 73.7941 299.027 75.7346 298.727C76.341 298.607 76.8868 298.427 77.5538 297.948ZM-67.135 259.513C-67.135 259.473 -67.1552 259.413 -67.1956 259.333C-67.1956 259.333 -67.1754 259.313 -67.135 259.273C-67.135 259.313 -67.135 259.353 -67.135 259.393C-67.135 259.433 -67.135 259.473 -67.135 259.513ZM-67.4988 258.733C-68.2872 253.337 -68.4691 247.88 -68.0446 242.424C-67.984 241.584 -67.6201 240.925 -66.9531 240.445C-65.0732 239.006 -63.4359 237.327 -62.0412 235.468C-61.9199 235.228 -61.6167 235.108 -61.2528 234.868C-61.3741 235.528 -61.3741 236.068 -61.4954 236.487C-61.9805 238.526 -62.5263 240.565 -63.1327 242.544C-64.7094 247.7 -66.0434 252.857 -66.7105 258.253C-66.7711 258.613 -67.0137 258.973 -67.135 259.273C-67.3169 259.093 -67.4988 258.913 -67.4988 258.733ZM-67.0137 259.932C-67.0946 259.932 -67.1754 259.912 -67.2563 259.872C-67.2158 259.752 -67.1754 259.632 -67.135 259.513C-67.0946 259.632 -67.0541 259.772 -67.0137 259.932ZM-24.8077 114.226C-23.413 116.385 -22.9279 118.184 -22.5034 121.422C-22.0789 125.199 -22.0183 128.977 -22.0789 132.814C-22.1193 136.172 -22.0991 139.55 -22.0183 142.948C-21.9576 144.087 -22.0789 145.106 -22.6853 146.126C-25.9599 151.762 -27.8398 157.878 -28.9313 164.234C-29.5377 167.352 -30.2654 170.47 -30.9931 173.588C-31.5995 176.226 -32.6304 178.745 -34.1464 180.963C-34.389 181.263 -34.7528 181.443 -35.1773 181.803C-35.905 179.524 -36.4508 177.426 -37.1785 175.387C-38.6945 171.07 -40.2105 166.752 -41.8478 162.435C-42.3329 161.176 -42.4542 159.917 -42.2116 158.658C-41.9691 157.518 -41.7872 156.379 -41.4233 155.36C-40.3924 152.662 -39.4222 149.963 -38.1487 147.445C-36.5721 144.207 -34.6316 141.089 -32.8123 137.911C-30.9931 134.793 -29.0526 131.675 -27.6579 128.317C-25.8993 124.18 -24.8077 119.923 -24.8684 115.426C-24.8684 115.006 -24.8077 114.646 -24.8077 114.226ZM-15.7723 163.694C-15.1052 165.193 -14.6201 166.153 -14.135 167.172C-12.5583 170.65 -11.103 174.188 -9.95077 177.845C-8.25283 183.482 -8.25283 189.058 -9.89013 194.694C-10.9412 198.292 -12.4168 201.71 -14.3169 204.948C-16.1361 208.126 -18.2586 211.124 -20.5629 213.942C-25.7174 220.298 -31.175 226.414 -35.905 233.07C-35.9656 233.07 -36.2082 233.01 -36.5114 232.95C-34.9954 224.375 -32.5698 215.921 -32.2059 207.286C-32.0846 207.046 -32.024 206.986 -31.9634 206.926C-31.4378 206.487 -30.892 206.047 -30.3261 205.607C-24.4439 201.05 -20.4416 195.174 -18.6224 187.919C-17.5915 183.781 -16.9245 179.644 -16.8638 175.327C-16.8032 172.928 -16.8032 170.53 -16.7425 168.072C-16.6819 166.812 -16.6212 165.493 -15.7723 163.694ZM-34.6922 183.661C-31.0537 178.085 -30.6293 177.066 -29.1132 170.23C-28.4462 167.292 -27.9004 164.294 -27.294 161.356C-26.3844 156.799 -24.8684 152.482 -22.746 148.404C-22.5034 147.985 -22.2002 147.565 -21.7151 146.845C-21.4725 147.625 -21.3512 147.985 -21.2906 148.404C-20.6033 151.642 -19.5927 154.76 -18.2586 157.758C-17.7734 158.897 -17.4096 160.037 -16.8638 161.116C-16.5 161.896 -16.5 162.615 -16.8032 163.395C-17.5309 165.014 -17.7128 166.692 -17.7734 168.431C-17.8139 170.79 -17.8543 173.128 -17.8947 175.447C-17.9553 179.644 -18.6224 183.721 -19.6533 187.739C-21.3512 194.574 -25.0503 200.091 -30.508 204.468C-30.8718 204.768 -31.2357 205.248 -32.024 205.008C-32.2666 203.269 -32.0846 201.47 -32.2666 199.671C-32.3878 197.872 -32.5091 196.073 -32.7517 194.275C-32.9942 192.476 -33.2975 190.677 -33.6007 188.878C-33.9645 187.079 -34.3283 185.34 -34.6922 183.661ZM62.0298 91.0213C61.0595 89.5822 60.3925 88.5629 59.6648 87.6035C57.4211 84.6654 54.5103 82.4468 51.5996 80.2282C49.6591 78.7892 47.7186 77.2901 45.8993 75.6712C44.3833 74.352 42.928 72.9729 42.0183 71.1741C40.2598 67.6963 39.5927 63.9787 39.714 60.1412C39.714 59.1818 40.0172 58.4623 40.6842 57.8027C42.3822 56.0638 44.0195 54.265 45.7174 52.5261C46.3238 51.9265 46.9302 51.3269 47.6579 50.7273C48.0218 51.0271 48.325 51.2669 48.5069 51.5068C49.841 53.4255 51.5389 55.0445 53.3582 56.5435C54.3284 57.4229 55.2987 58.3024 56.2689 59.1818C59.2403 62.0599 61.1202 65.4777 61.4234 69.675C61.5447 71.1141 61.6053 72.6131 61.7872 74.0522C62.0904 77.3501 62.5149 80.588 64.1522 83.5261C64.3948 83.9458 64.516 84.6054 64.3948 85.0251C63.849 86.8839 63.2426 88.7427 62.0298 91.0213ZM49.841 180.843C52.4485 179.524 54.6923 178.205 57.0572 177.066C59.9074 175.747 62.8181 174.487 65.6682 173.168C67.1842 172.509 68.7002 172.449 70.2163 172.988C71.5504 173.408 72.8845 173.828 74.1579 174.487C75.9165 175.327 77.7357 176.286 79.373 177.426C81.6167 178.925 83.7998 180.544 85.9222 182.222C89.1362 184.621 92.3501 187.019 96.2311 188.279C96.4737 188.338 96.6556 188.518 97.0801 188.818C96.4737 189.058 95.9886 189.298 95.5641 189.478C94.1694 190.017 92.714 190.437 91.3799 191.097C89.8639 191.816 88.2872 192.296 86.5893 192.296C84.7094 192.296 82.7689 192.236 80.889 191.996C77.6751 191.576 74.7643 190.437 71.9142 189.058C69.4279 187.859 66.9417 186.54 64.3948 185.34C60.0286 183.302 55.5412 181.683 50.6293 181.323C50.508 181.323 50.3868 181.143 49.841 180.843ZM61.3627 97.9768C61.1808 97.8568 61.0595 97.7369 61.1202 97.677C61.2414 97.1973 61.3627 96.7176 61.5446 96.2379C64.4554 89.2824 67.0629 82.2069 69.0035 74.8917C69.3067 73.7524 69.9737 73.1528 71.0046 72.7331C73.1877 71.8336 75.0675 70.4545 76.8261 68.8356C78.1602 67.5164 79.6156 66.2572 81.0103 64.9381C82.5263 63.559 84.1636 62.4797 86.0435 61.7002C86.468 61.5203 86.9531 61.4603 87.4382 61.3404C88.4691 63.8588 89.8032 69.675 89.7426 72.0735C89.7426 72.6131 89.6213 73.2727 89.4394 73.8124C87.4382 79.3888 83.8604 83.7659 78.7666 86.824C76.7048 88.0232 74.643 89.1625 72.5813 90.3017C69.1854 92.1605 65.8501 94.2592 62.9394 96.8975C62.4543 97.3772 61.8478 97.677 61.3627 97.9768ZM72.7632 7.37523C72.9249 7.4152 73.0866 7.47516 73.2483 7.55511C73.127 8.0348 73.0057 8.51449 72.8845 8.99418C70.095 17.6286 68.9428 26.383 70.0343 35.4371C70.4588 38.675 70.6408 41.9729 70.8833 45.2708C71.7929 56.4835 70.095 67.3965 66.6991 78.0696C66.5778 78.4294 66.3959 78.7891 65.9714 79.6886C65.7895 78.6093 65.6682 78.1296 65.6682 77.7098C65.7895 75.7311 65.9108 73.6924 66.0927 71.7137C66.2746 69.1354 66.5778 66.557 66.6991 63.9787C66.7597 60.7408 66.0321 57.6228 64.698 54.6247C63.849 52.666 62.9394 50.7073 61.9691 48.7485C60.4531 45.5706 59.2403 42.3926 58.8765 38.8549C58.7552 37.5957 58.6945 36.3365 59.2403 35.0774C61.0595 30.7601 62.7574 26.383 64.5767 22.0657C66.0927 18.3481 67.9119 14.8104 70.0343 11.3926C70.8833 10.0135 71.8536 8.69438 72.7632 7.37523ZM154.082 159.197C153.052 159.737 152.081 159.797 151.172 159.977C145.411 160.996 139.771 162.555 134.374 164.894C131.1 166.333 127.825 167.952 124.611 169.391C116.728 172.988 108.541 173.288 100.173 171.669C99.9302 171.609 99.6877 171.489 99.4451 171.309C99.3845 170.29 99.9909 169.511 100.537 168.731C103.265 164.714 107.207 162.435 111.816 161.236C113.999 160.696 116.303 160.516 118.547 160.217C121.336 159.857 124.126 159.677 126.855 159.257C129.462 158.897 131.767 157.878 133.828 156.379C134.435 155.899 135.102 155.48 135.526 155.24C138.74 156.199 141.59 157.219 144.562 157.878C147.655 158.538 150.747 158.778 154.082 159.197ZM60.1499 96.058C59.5435 97.677 58.9371 99.236 58.3307 100.795C57.6636 102.354 57.3604 104.093 56.3902 105.592C55.9051 105.592 55.4806 105.712 55.0561 105.652C54.2678 105.592 53.4794 105.532 52.7517 105.352C46.9302 103.913 41.7151 101.514 37.349 97.3772C35.6511 95.7782 34.3574 93.9394 33.468 91.8607C31.5881 87.6634 30.9817 83.2263 31.5275 78.6692C31.5881 78.2495 31.5881 77.8298 32.1945 77.7098C32.5584 78.2495 32.9829 78.8491 33.3467 79.3888C34.984 82.0271 37.2277 84.0658 39.8959 85.6247C41.2907 86.3443 42.746 87.0638 44.2014 87.6035C46.627 88.5629 49.1133 89.4023 51.5389 90.3017C53.055 90.8414 54.5103 91.381 55.9051 92.1006C57.603 92.94 59.2403 94.0193 60.1499 96.058ZM-45.9714 147.685C-46.0926 146.845 -46.2139 146.246 -46.2746 145.706C-46.881 140.429 -46.5778 135.273 -45.2437 130.236C-44.4554 126.998 -43.3638 123.88 -42.3936 120.762C-41.1201 116.685 -39.7254 112.667 -38.5126 108.59C-36.9965 103.433 -36.0263 98.1567 -36.1476 92.7601C-36.2082 92.4603 -36.0263 92.1605 -35.905 91.6209C-34.6316 94.2592 -33.4187 96.6576 -32.3272 99.116C-31.9027 100.015 -31.4782 101.035 -31.2357 101.994C-30.2048 106.731 -30.3867 111.468 -31.175 116.205C-32.3272 122.981 -35.1167 129.097 -38.937 134.793C-41.5446 138.691 -44.0309 142.708 -45.4256 147.205C-45.4862 147.265 -45.5469 147.325 -45.9714 147.685ZM-58.524 188.039C-58.0995 188.638 -57.857 188.878 -57.7357 189.118C-56.5229 191.816 -54.7643 194.215 -53.0663 196.613C-48.4576 203.089 -42.6361 208.246 -35.7231 212.143C-35.1773 212.443 -34.6922 212.743 -34.2071 212.983C-34.389 216.221 -35.8444 223.956 -37.4817 230.731C-37.5423 230.911 -37.7242 231.091 -37.8455 231.391C-38.1487 231.151 -38.3306 231.091 -38.5126 230.911C-43.4851 224.615 -47.9725 218.019 -52.3386 211.364C-53.9759 208.905 -55.31 206.267 -56.4622 203.569C-58.4027 199.251 -59.1304 194.634 -58.8272 189.897C-58.7666 189.418 -58.6453 188.938 -58.524 188.039ZM90.7735 169.631C88.1659 169.331 85.5584 169.031 82.9508 168.851C80.3433 168.671 77.6751 168.791 75.1282 169.271C72.5813 169.81 70.095 170.41 67.4268 170.95C67.5481 170.59 67.5481 170.29 67.6693 170.11C69.246 167.532 70.8227 164.894 72.3993 162.375C73.309 160.936 74.1579 159.497 75.1888 158.238C76.7655 156.379 78.706 154.82 81.1316 154.28C85.1945 153.321 88.9543 151.762 92.6533 149.963C94.7758 149.004 96.9588 147.985 99.2632 147.505C99.627 147.445 99.9909 147.565 100.415 147.625C100.173 147.925 100.112 148.104 99.9909 148.224C99.8696 148.344 99.6877 148.404 99.5664 148.524C97.1408 150.683 95.5843 153.341 94.897 156.499C94.5938 157.998 94.3513 159.557 94.0481 161.056C93.7449 162.675 93.4417 164.294 93.0172 165.853C92.5927 167.292 92.0469 168.671 90.7735 169.631ZM-40.5743 170.17C-40.2105 170.89 -39.9073 171.429 -39.7254 171.969C-39.119 173.648 -38.5732 175.267 -38.0881 176.946C-36.4508 182.162 -35.056 187.379 -34.2677 192.836C-34.2071 193.375 -33.8432 194.035 -34.5709 194.455C-42.0904 192.596 -51.7929 184.921 -55.9771 177.366C-55.5526 175.147 -54.9462 172.868 -54.643 170.59C-54.4004 168.191 -54.5217 165.793 -54.4611 163.215C-54.0366 163.515 -53.6727 163.694 -53.3695 163.994C-52.5206 164.774 -51.7929 165.613 -50.9439 166.333C-48.0938 168.971 -44.9405 170.89 -40.5743 170.17ZM-14.0743 274.623C-9.46564 273.663 -5.34207 273.004 -1.27914 272.044C1.44969 271.445 3.93596 271.685 6.48288 272.524C11.2735 274.083 15.7609 276.182 19.7026 279.3C22.9165 281.878 25.8879 284.636 28.9806 287.275C29.1625 287.455 29.1625 287.694 29.3444 288.114C28.6774 288.054 28.1316 287.994 27.6465 287.874C24.857 287.215 21.9463 286.975 19.0355 287.035C17.3376 287.095 15.579 287.215 13.8204 287.275C12.6076 287.275 11.3341 287.215 10.182 287.035C6.84672 286.615 3.69339 285.476 0.843282 283.677C-0.915301 282.598 -2.67388 281.458 -4.37181 280.259C-7.10065 278.34 -9.89013 276.542 -12.9828 275.282C-13.2254 275.222 -13.4073 275.043 -14.0743 274.623ZM-57.675 119.983C-56.5835 120.402 -56.0984 121.182 -55.7345 121.961C-55.2494 122.981 -54.8249 124 -54.4611 125.079C-53.794 126.818 -53.2483 128.677 -52.5206 130.416C-51.7929 132.215 -50.762 133.774 -49.1853 134.973C-48.7002 135.333 -48.2757 135.752 -47.7906 136.172C-47.7906 136.652 -47.73 137.072 -47.7906 137.491C-48.2151 143.427 -47.4874 149.244 -45.7288 154.88C-44.6373 158.358 -43.3638 161.776 -42.2116 165.193C-42.0297 165.853 -41.8478 166.453 -41.6052 167.412C-42.2723 167.052 -42.6968 166.872 -43 166.632C-45.4256 164.714 -47.4874 162.495 -48.8821 159.737C-50.2769 156.979 -51.5503 154.101 -52.8238 151.282C-54.7643 146.845 -56.7654 142.408 -60.5251 139.05C-61.2528 138.511 -61.1922 137.731 -61.1922 136.952C-61.3135 131.315 -60.1613 125.919 -58.1602 120.702C-58.0389 120.522 -57.857 120.282 -57.675 119.983ZM85.9829 193.495C86.0233 193.655 86.0637 193.815 86.1041 193.975C84.952 194.754 83.7392 195.534 82.6476 196.313C81.4954 197.213 80.222 197.692 78.8272 197.932C74.9462 198.772 71.1259 198.472 67.4268 197.153C65.0618 196.253 62.7575 195.174 60.4531 194.155C58.27 193.195 56.2083 192.116 53.9646 191.217C48.6888 189.118 43.2311 188.099 37.5309 189.418C37.349 189.478 37.1064 189.298 36.6213 189.118C39.4714 187.019 42.2003 185.22 45.0504 183.542C46.4451 182.702 47.9005 182.342 49.5378 182.342C52.0241 182.342 54.389 182.822 56.754 183.542C60.2105 184.561 63.4851 186.06 66.6991 187.619C69.1854 188.878 71.7323 190.077 74.2792 191.217C77.5538 192.596 80.9497 193.315 84.5275 193.375C85.0126 193.375 85.4977 193.435 85.9829 193.495ZM-34.2071 211.603C-34.7528 211.424 -35.056 211.304 -35.3592 211.124C-36.2082 210.644 -37.037 210.164 -37.8455 209.685C-46.6384 204.048 -53.0663 196.313 -57.7357 187.079C-58.1602 186.3 -58.2814 185.46 -58.0389 184.621C-57.6144 183.122 -57.2505 181.563 -56.8261 180.064C-56.7654 179.824 -56.5229 179.584 -56.159 179.104C-53.4302 183.242 -50.2769 186.66 -46.3959 189.418C-42.5755 192.116 -38.5732 194.574 -34.0858 195.834C-33.2368 199.911 -33.2974 208.366 -34.2071 211.603ZM73.9154 10.2534C74.0771 10.2933 74.2388 10.3333 74.4005 10.3733C74.5218 11.2127 74.643 12.0522 74.7037 12.8917C75.1888 19.1276 76.2197 25.2437 77.9176 31.2398C79.0092 35.0774 80.222 38.8549 81.4955 42.6325C81.7986 43.6518 81.7986 44.4313 81.1922 45.2708C80.1613 46.8298 79.6762 48.5686 79.2517 50.3675C78.9485 51.7466 78.706 53.0657 78.3421 54.3849C77.3719 57.8027 75.6739 60.8008 72.8845 63.0793C72.5813 63.3191 72.3387 63.7389 71.6716 63.4391C71.7323 62.8994 71.7323 62.2998 71.7929 61.7002C72.3387 57.5628 72.5813 53.4255 72.3387 49.2882C72.0961 44.4313 71.8536 39.6344 71.3078 34.8375C70.4588 27.2224 71.3078 19.7872 73.1877 12.4719C73.4302 11.6924 73.6728 10.9729 73.9154 10.2534ZM124.368 149.843C123.398 150.863 122.671 151.642 121.943 152.302C119.699 154.28 117.092 155.36 114.302 156.199C111.573 156.979 108.905 157.758 106.298 158.778C101.446 160.636 97.8684 163.934 95.9886 168.851C95.746 169.391 95.5035 169.93 95.2609 170.47C94.1693 170.59 93.2598 170.35 92.4108 169.93C94.3513 165.373 94.3513 165.373 95.3215 159.917C95.5641 158.478 95.8673 157.039 96.2311 155.6C96.8375 153.321 98.111 151.342 99.8696 149.663C101.568 148.044 103.569 146.725 106.055 146.605C111.695 146.426 117.273 147.025 122.61 148.944C123.034 149.124 123.459 149.424 124.368 149.843ZM71.0046 171.789C71.1865 171.609 71.2472 171.429 71.4291 171.429C75.1282 170.41 78.9485 169.93 82.8295 170.17C85.2552 170.29 87.4989 170.95 89.5607 172.149C91.3799 173.228 93.0778 174.427 94.7758 175.687C96.5344 176.946 98.2323 178.325 99.9302 179.644C103.387 182.342 107.328 183.961 111.634 184.621C113.029 184.861 114.423 184.981 115.818 185.161C116.182 185.161 116.546 185.34 117.334 185.52C114.484 186.6 111.998 187.079 109.511 187.379C106.965 187.679 104.478 187.799 101.931 188.099C100.658 188.279 99.5057 188.159 98.2929 187.799C95.463 187.079 92.8555 185.88 90.4703 184.201C88.5904 182.942 86.8318 181.503 85.0126 180.124C80.889 176.946 76.5835 174.008 71.5504 172.269C71.3684 172.149 71.1865 171.969 71.0046 171.789ZM85.9222 90.6015C85.7403 91.9207 85.0733 92.8201 84.5275 93.7795C80.6465 100.675 75.3101 106.371 69.3673 111.528C64.3948 115.785 58.8765 119.383 53.6614 123.28C53.4188 123.46 53.1156 123.52 52.6911 123.64C52.6911 123.161 52.6911 122.921 52.7517 122.681C54.2071 118.723 55.4199 114.646 56.5115 110.509C56.6934 109.729 57.1785 108.95 57.6636 108.23C59.6648 105.172 62.5149 103.073 65.8501 101.574C68.0938 100.555 70.3982 99.7156 72.7025 98.8762C77.4325 97.1373 81.738 94.7988 85.1945 91.0213C85.3158 90.8414 85.5584 90.7814 85.9222 90.6015ZM76.7048 199.551C76.0378 199.971 75.7346 200.271 75.3707 200.451C72.9451 201.35 70.3982 201.95 67.73 202.19C63.7681 202.549 59.8467 202.349 55.9657 201.59C52.4486 200.93 48.9314 200.091 45.4749 199.251C40.2598 197.992 35.1053 196.553 29.7689 196.253C29.4657 196.193 29.1625 196.014 28.5561 195.834C29.7083 194.814 30.6785 193.915 31.5881 193.075C32.0126 192.716 32.4371 192.416 32.8616 192.116C33.0637 191.996 33.2861 191.876 33.5286 191.756C37.2884 190.317 41.0481 189.478 45.111 190.017C48.325 190.437 51.4783 191.217 54.4497 192.536C56.2083 193.315 57.9062 194.155 59.6648 194.934C61.6659 195.894 63.6064 196.793 65.6682 197.632C68.7002 198.832 71.8536 199.551 75.1282 199.431C75.5527 199.431 75.9771 199.491 76.7048 199.551ZM38.5012 61.0406C38.6225 61.7601 38.6831 62.1199 38.7437 62.5396C38.9257 63.9787 39.0469 65.4777 39.3501 66.9168C40.0778 70.0948 41.4726 72.9129 43.8982 75.2514C46.0206 77.2901 48.3856 79.089 50.69 80.8878C52.8124 82.5667 54.9348 84.2456 56.9359 86.0445C58.6339 87.6634 60.0286 89.5822 61.1202 91.6808C61.6053 92.6402 61.484 93.4797 60.4531 94.2592C57.9062 91.381 54.4497 90.1218 50.9325 88.9826C50.2048 88.7427 49.4771 88.5029 48.6888 88.2031C46.6877 87.4236 44.6259 86.704 42.6247 85.8646C38.4405 83.9458 35.1659 81.0677 32.9829 76.9903C32.3158 75.6712 32.1339 74.4719 32.5584 73.0329C33.7106 69.0754 35.4085 65.4178 37.6522 61.94C37.7735 61.7002 38.0767 61.4603 38.5012 61.0406ZM17.944 260.112C17.2769 260.352 17.095 260.412 16.9737 260.472C12.7895 260.652 9.09042 262.031 5.69454 264.369C3.26891 266.048 0.78265 267.727 -1.64299 269.406C-3.58348 270.725 -5.70592 271.745 -8.13155 272.104C-9.82949 272.344 -11.5274 272.764 -13.286 273.064C-17.2277 273.723 -21.2299 274.143 -25.2929 274.023C-25.5961 274.023 -25.8993 273.843 -26.5057 273.663C-25.778 273.124 -25.3535 272.704 -24.8077 272.404C-21.7757 270.545 -18.7437 268.687 -15.7116 266.768C-11.6487 264.309 -7.34321 262.331 -2.8558 260.832C0.540081 259.752 3.9966 258.853 7.63504 258.493C11.0309 258.133 14.3662 258.553 17.944 260.112ZM57.603 39.1547C58.2094 42.3327 59.1797 45.2708 60.5744 48.089C61.2212 49.528 61.8883 50.9471 62.5755 52.3462C64.8192 56.8433 66.0321 61.5803 65.6076 66.617C65.4054 68.5358 65.1831 70.4345 64.9405 72.3133C64.4554 75.2514 64.3948 78.1895 65.1225 81.0677C65.2437 81.4874 65.2437 81.9071 65.2437 82.3269C64.698 82.0271 64.3341 81.6673 64.2128 81.1876C63.7277 79.2688 63.2426 77.3501 63 75.3714C62.6968 73.3327 62.6362 71.234 62.4542 69.1953C62.0904 65.7776 60.8776 62.7795 58.5732 60.2611C57.0572 58.5822 55.3593 57.0832 53.722 55.5242C52.4485 54.265 51.1144 53.0058 49.841 51.6866C49.2346 51.147 48.8101 50.4874 48.8707 49.4681C52.024 46.41 54.9955 43.0522 57.603 39.1547ZM32.6797 274.623C35.4691 273.484 38.1373 273.064 40.8662 273.124C43.1705 273.124 45.3536 273.603 47.2334 275.103C48.3856 276.002 49.6591 276.841 50.69 277.861C52.9943 280.199 55.238 282.658 57.4211 285.056C61.1808 289.133 64.9405 293.091 69.6705 296.029C69.8524 296.149 69.9737 296.329 70.3376 296.689C69.7311 296.689 69.4279 296.689 69.1247 296.629C64.3948 295.609 59.9074 293.99 55.8444 291.292C53.2975 289.613 50.8112 287.874 48.4463 285.955C43.5344 282.178 38.7437 278.28 33.3467 275.222C33.2254 275.162 33.1042 274.983 32.6797 274.623ZM-29.5984 104.153C-27.3547 107.271 -26.0206 110.089 -25.8993 113.447C-25.8386 117.104 -26.1418 120.702 -27.2334 124.18C-28.3856 127.778 -30.0229 131.135 -31.9027 134.373C-33.4187 136.892 -34.9348 139.41 -36.4508 141.928C-38.9977 146.366 -41.302 150.983 -42.6968 155.959C-42.818 156.319 -43 156.679 -43.1819 157.099C-43.4245 156.919 -43.667 156.799 -43.7277 156.679C-44.0309 155.72 -44.3341 154.7 -44.6979 153.741C-45.4256 151.882 -45.2437 150.023 -44.6373 148.164C-43.4245 144.327 -41.6659 140.789 -39.4222 137.431C-37.9061 135.153 -36.5114 132.874 -35.1773 130.536C-30.9325 122.861 -29.0526 114.586 -29.5984 105.772C-29.659 105.472 -29.659 105.112 -29.5984 104.153ZM101.446 123.4C101.446 123.52 101.466 123.64 101.507 123.76C98.96 125.979 96.4131 128.197 93.8055 130.356C92.1682 131.795 90.4703 133.114 88.7117 134.493C84.952 137.491 80.5858 139.05 75.7346 139.41C71.0046 139.83 66.3353 140.309 61.6053 140.729C61.3021 140.789 60.9989 140.669 60.4531 140.549C62.2723 138.451 64.2735 136.892 66.4565 135.692C69.3673 134.073 72.3387 132.634 75.492 131.675C80.3433 130.176 85.2552 128.737 90.0458 127.238C93.0778 126.338 96.0492 125.259 99.0206 124.3C99.809 124 100.597 123.7 101.446 123.4ZM64.516 157.398C64.0916 158.118 63.9703 158.418 63.7884 158.718C63 160.217 62.0298 161.656 61.3021 163.275C60.5744 164.894 60.0893 166.692 59.4222 168.371C58.6339 170.35 57.7849 172.389 56.936 174.367C56.3902 175.567 55.4806 176.466 54.2071 177.066C51.9028 178.265 49.5984 179.524 47.2334 180.723C46.809 180.963 46.3845 181.383 45.7781 180.963C45.2929 179.884 45.1717 178.685 45.2929 177.485C45.4142 175.327 45.6568 173.168 45.96 171.01C46.2632 168.911 47.1122 167.052 49.0527 165.853C49.4165 165.613 49.7197 165.253 50.0229 165.014C54.1465 161.476 58.7552 158.957 64.516 157.398ZM98.6568 173.288C103.69 173.588 108.481 174.188 113.271 173.768C118.244 173.288 122.792 171.609 127.158 169.81C128.249 170.17 129.159 170.53 130.069 170.77C131.039 170.95 132.009 171.07 132.919 171.19C133.828 171.369 134.859 171.13 135.89 171.669C133.465 173.888 131.039 175.867 128.856 178.085C127.643 179.284 126.309 179.884 124.672 180.004C123.277 180.064 121.882 180.184 120.487 180.124C116.121 179.944 111.816 179.224 107.571 177.905C104.721 177.006 102.053 175.747 99.5664 174.068C99.2632 173.888 98.96 173.528 98.6568 173.288ZM66.881 297.588C62.6968 297.888 58.5733 297.648 54.571 296.689C54.1667 296.569 53.7624 296.429 53.3582 296.269C48.1431 294.35 43.3524 291.712 39.2289 287.994C37.7735 286.635 36.3383 285.236 34.9234 283.797C31.4669 280.259 28.2529 276.542 24.2506 273.544C24.1293 273.424 24.0687 273.244 23.8261 272.704C24.5538 272.944 25.0389 273.124 25.5241 273.304C28.2529 274.203 30.9211 275.402 33.4074 276.781C36.7426 278.7 39.8353 280.919 42.8673 283.317C45.5355 285.356 48.143 287.514 50.8719 289.553C55.5412 292.971 60.5138 295.849 66.214 297.288C66.4566 297.348 66.6385 297.468 66.881 297.588ZM-47.0023 130.656C-47.3055 130.056 -47.6087 129.696 -47.6693 129.277C-47.9119 127.838 -48.2151 126.398 -48.2151 124.959C-48.1544 122.981 -47.9725 121.002 -47.73 119.023C-47.3661 116.505 -46.8203 114.046 -46.3959 111.588C-45.9107 108.77 -45.7894 105.952 -46.3959 103.073C-46.5171 102.774 -46.4565 102.414 -46.5171 102.234C-44.9405 99.8955 -43.3032 97.677 -41.9691 95.3984C-40.635 93.1199 -39.5434 90.7215 -38.2094 87.9632C-37.6029 89.942 -37.5423 91.5609 -37.4817 93.1799C-37.421 97.1973 -37.9062 101.155 -38.937 104.992C-40.1499 109.309 -41.5446 113.627 -42.8181 117.884C-44.0309 121.781 -45.3043 125.679 -46.5171 129.516C-46.5778 129.816 -46.7597 130.116 -47.0023 130.656ZM89.4394 76.6305C89.7426 79.5087 89.5607 82.3269 88.2872 84.8452C85.9829 89.2224 82.6476 92.7002 78.2815 95.2186C75.8559 96.5977 73.2483 97.617 70.5801 98.5764C66.4565 99.9555 62.5149 101.814 59.1797 104.692C58.9977 104.812 58.7552 104.812 58.2701 104.932C58.5732 104.213 58.7552 103.733 58.9977 103.313C60.9989 99.7756 63.849 96.9574 67.2449 94.7988C70.762 92.5203 74.4005 90.4216 78.0389 88.383C82.7083 85.7447 86.5893 82.3269 88.8936 77.47C89.0755 77.1702 89.2574 76.8704 89.4394 76.6305ZM44.2014 293.511C43.1705 293.151 42.5641 292.911 41.8971 292.731C39.8353 291.952 37.8341 291.112 35.7724 290.393C34.1351 289.853 32.7403 289.014 31.4669 287.994C29.8296 286.555 28.1316 285.116 26.555 283.677C21.0367 278.52 14.9119 274.263 7.63504 271.745C7.45312 271.685 7.33184 271.505 6.968 271.145C7.51377 271.085 7.81697 270.965 8.18081 270.965C10.6064 271.045 13.0523 271.125 15.5183 271.205C17.2163 271.265 18.7929 271.745 20.2483 272.524C21.7037 273.304 23.1591 274.143 24.4932 275.103C27.1614 277.081 29.4051 279.54 31.7094 281.938C35.4085 285.716 39.0469 289.613 43.4737 292.551C43.6556 292.731 43.7769 292.971 44.2014 293.511ZM6.48288 287.754C-0.490809 288.534 -6.7368 287.694 -12.619 284.277C-16.9244 281.818 -20.9874 278.94 -24.929 276.002C-25.0503 275.942 -25.0503 275.702 -25.1109 275.462C-23.413 275.342 -21.7151 275.402 -20.1384 275.162C-17.9553 274.863 -15.8936 275.222 -13.9531 276.062C-12.4977 276.721 -11.0423 277.321 -9.7082 278.101C-7.70706 279.3 -5.70591 280.619 -3.76541 281.938C-0.733371 283.977 2.29867 286.015 5.87646 287.155C5.99775 287.215 6.11903 287.395 6.48288 287.754ZM-0.733371 270.426C-0.430164 270.006 -0.308887 269.766 -0.126964 269.646C2.54123 267.787 5.14878 265.928 7.87761 264.25C11.5767 261.971 15.6396 261.132 19.9451 261.491C21.0973 261.611 22.1888 261.851 23.1591 262.451C25.2815 263.77 27.3433 264.969 29.4657 266.288C29.6476 266.348 29.7083 266.648 29.8902 266.888C29.5264 266.948 29.2231 267.008 28.9806 267.008C24.7964 266.828 20.8547 267.727 17.0344 269.526C16.3673 269.826 15.7609 269.886 15.0332 269.826C10.2426 269.406 5.45198 269.646 0.661358 270.426C0.297513 270.485 -0.126964 270.426 -0.733371 270.426ZM70.095 71.8336C70.095 71.4139 70.0343 71.0541 70.095 70.7543C70.3375 69.5551 70.6408 68.4158 70.8833 67.2166C71.0652 66.1373 71.5504 65.3578 72.46 64.6982C76.159 62.1799 78.3421 58.5822 79.4337 54.3249C79.7975 53.1257 79.9794 51.8066 80.2826 50.5474C80.6061 49.3082 80.9901 48.069 81.4348 46.8298C81.5561 46.47 81.9199 46.2302 82.2838 45.6905C83.6785 48.089 84.2243 50.5474 85.0126 52.8859C85.8009 55.2244 86.8318 57.5029 87.0744 60.0213C86.6499 60.3211 86.2861 60.5609 85.8616 60.7408C83.4359 61.7601 81.3135 63.1992 79.4337 65.058C77.9176 66.4971 76.341 67.8762 74.7643 69.2553C73.4302 70.3946 71.9748 71.294 70.095 71.8336ZM62.4542 136.472C63 135.632 63.2426 135.273 63.4851 134.913C65.4256 132.455 67.7906 130.416 70.1556 128.317C72.8238 125.979 75.9165 124.42 79.4337 123.76C81.7986 123.28 84.2849 122.981 86.7105 122.741C89.8639 122.441 92.9565 122.081 96.0492 121.362C97.9291 121.002 99.809 120.822 101.749 120.582C102.113 120.522 102.538 120.642 103.326 120.762C102.417 121.302 101.931 121.661 101.386 121.901C97.5046 123.52 93.5629 124.959 89.5607 126.099C84.9924 127.378 80.4646 128.737 75.9771 130.176C73.9154 130.776 71.8536 131.615 69.9131 132.514C67.5481 133.654 65.3044 134.973 62.4542 136.472ZM-57.2505 118.603C-54.8856 113.447 -51.611 109.13 -48.5183 104.752C-48.2757 104.453 -47.9119 104.213 -47.4267 103.793C-47.2448 104.453 -47.1235 104.872 -47.0629 105.292C-46.8203 107.451 -47.1235 109.609 -47.4874 111.708C-48.0332 114.766 -48.5789 117.824 -49.0034 120.942C-49.5492 124.839 -49.3673 128.677 -47.73 132.395C-47.548 132.754 -47.4267 133.174 -47.4267 133.594C-47.4267 133.954 -47.6087 134.253 -47.73 134.613C-49.7311 133.234 -50.6407 132.275 -51.4897 130.296C-51.9344 129.177 -52.3386 128.037 -52.7025 126.878C-53.6727 123.88 -54.7036 120.942 -57.2505 118.603ZM96.4737 170.65C97.1408 168.551 98.0504 166.692 99.3238 165.014C101.204 162.555 103.69 160.816 106.601 159.737C109.451 158.718 112.422 157.818 115.333 156.919C118.122 156.079 120.669 154.76 122.852 152.841C123.701 152.062 124.49 151.102 125.339 150.263C128.128 151.043 132.555 153.261 134.192 154.64C133.828 155.36 133.161 155.72 132.494 156.139C130.372 157.458 128.068 158.178 125.581 158.478C122.913 158.778 120.245 159.017 117.516 159.257C115.09 159.437 112.665 159.797 110.36 160.576C105.145 162.315 101.022 165.253 98.5355 170.17C98.4142 170.35 98.3536 170.47 98.2929 170.65C97.8078 171.25 97.262 171.19 96.4737 170.65ZM58.0881 174.967C59.4222 171.25 60.5744 168.012 61.7872 164.774C62.2723 163.514 62.8181 162.195 63.5458 161.056C64.2128 159.857 65.1225 158.778 66.0321 157.698C66.6385 156.979 67.4874 156.499 68.4577 156.379C70.762 155.959 73.127 155.54 75.4314 155.18C75.7952 155.12 76.1591 155.12 76.2803 155.54C75.3101 156.679 74.2186 157.698 73.3696 158.838C72.46 160.097 71.7323 161.476 70.9439 162.855C70.3375 163.874 69.7918 165.014 69.1247 165.973C67.9928 167.732 66.78 169.431 65.4863 171.07C65.0012 171.669 64.3948 172.209 63.7277 172.509C62.0298 173.348 60.2106 174.068 58.0881 174.967ZM56.1476 106.851C54.5103 112.068 53.6007 117.404 51.1751 122.441C50.9325 122.081 50.69 121.901 50.69 121.661C49.7197 117.464 47.6579 113.747 45.2323 110.269C43.2311 107.331 41.1694 104.453 39.1076 101.514C38.8044 101.095 38.5618 100.555 38.3192 100.135C43.7163 103.733 49.5378 106.132 56.1476 106.851ZM-41.6659 169.031C-43.667 169.511 -45.183 169.031 -46.5171 168.251C-47.8512 167.472 -49.1247 166.513 -50.3375 165.493C-51.6716 164.414 -52.8238 163.095 -54.1579 161.956C-54.8249 161.356 -55.1888 160.696 -55.492 159.857C-56.2601 157.378 -57.0686 154.92 -57.9176 152.482C-59.1304 149.064 -60.2826 145.586 -60.8284 141.988C-60.889 141.569 -60.7677 141.089 -60.7677 140.489C-58.6453 142.348 -57.675 143.547 -56.6441 145.706C-54.9462 149.304 -53.3089 152.961 -51.6716 156.559C-50.1556 159.797 -48.5183 162.975 -45.8501 165.433C-44.6373 166.632 -43.3032 167.712 -41.6659 169.031ZM44.9291 182.043C39.714 185.34 34.8021 188.638 30.254 192.476C30.1934 192.536 30.1328 192.536 30.0115 192.536C29.9508 192.536 29.8902 192.476 29.8296 192.416C31.3456 187.199 40.9874 172.988 44.9291 170.41C44.262 174.308 43.8376 178.085 44.9291 182.043ZM124.55 181.083C124.368 181.623 124.368 181.803 124.247 181.863C122.549 183.362 120.609 184.201 118.304 184.201C111.573 184.201 105.327 182.642 99.9302 178.445C97.0195 176.166 93.9874 173.948 91.016 171.669C91.016 171.609 91.016 171.489 91.016 171.25C93.0172 171.549 94.8971 171.789 96.5344 173.168C99.5664 175.687 103.023 177.545 106.783 178.745C112.058 180.424 117.455 181.383 123.034 181.143C123.459 181.083 123.883 181.083 124.55 181.083ZM-69.6819 246.081C-72.2288 243.443 -73.5023 240.385 -74.1087 237.027C-74.1693 236.607 -74.1693 236.128 -74.1087 235.708C-73.6842 232.53 -72.8352 229.412 -71.3192 226.534C-71.1373 226.294 -71.016 225.874 -70.4096 226.054C-70.1064 227.014 -69.8638 228.093 -69.5 229.172C-69.1361 230.311 -68.651 231.451 -68.2265 232.53C-67.9233 233.249 -68.0446 233.909 -68.2265 234.569C-69.0148 237.867 -69.3787 241.224 -69.5 244.582C-69.5606 245.122 -69.6213 245.602 -69.6819 246.081ZM-60.7071 216.88C-60.1613 220.418 -60.1613 223.416 -60.04 226.414C-59.9187 230.012 -61.1922 232.95 -63.4965 235.588C-64.4061 236.667 -65.3764 237.627 -66.3467 238.646C-66.6499 238.886 -66.8924 239.306 -67.6201 239.006C-67.5595 238.466 -67.5595 237.867 -67.4382 237.327C-66.7711 234.749 -66.286 232.11 -65.3764 229.592C-64.0423 225.514 -62.405 221.497 -60.7071 216.88ZM18.8536 269.946C21.7643 268.627 24.3719 268.207 27.1007 268.027C31.3456 267.727 35.2266 269.046 38.9257 270.905C39.4108 271.145 40.0778 271.145 40.2598 271.985C37.349 272.164 34.6202 272.704 31.952 273.663C31.1637 273.963 30.436 273.843 29.7083 273.484C26.555 272.124 23.3006 271.125 19.9451 270.485C19.7025 270.426 19.5206 270.246 18.8536 269.946ZM151.778 161.836C150.767 162.315 149.736 162.775 148.685 163.215C145.289 164.834 142.136 166.932 139.104 169.151C138.376 169.691 137.588 170.23 136.557 170.29C134.374 170.35 132.191 170.29 130.069 169.691C129.705 169.571 129.462 169.271 129.098 169.031C134.92 165.493 146.624 161.476 151.778 161.836ZM17.8227 243.443C21.7643 242.124 37.2277 241.944 40.1991 243.083C39.9566 243.263 39.714 243.443 39.5321 243.563C36.7426 244.402 34.0138 245.242 31.2243 246.021C30.5572 246.201 29.8295 246.261 29.1625 246.261C25.5241 246.141 22.0069 245.422 18.6717 244.043C18.4291 243.923 18.1865 243.683 17.8227 243.443ZM-74.2299 241.164C-73.9267 241.704 -73.8055 242.004 -73.6235 242.244C-72.5926 244.043 -71.6224 245.901 -70.5309 247.64C-69.9245 248.54 -69.6213 249.439 -69.5606 250.518C-69.318 253.636 -69.0148 256.754 -68.7723 259.812C-68.6106 261.731 -68.4691 263.63 -68.3478 265.509C-68.3478 265.928 -68.1659 266.408 -68.7723 266.648C-69.8638 263.09 -70.9553 259.533 -72.0469 255.975C-72.2894 255.075 -72.5926 254.116 -72.7746 253.217C-73.3203 250.219 -73.8661 247.28 -74.3512 244.282C-74.5332 243.383 -74.6544 242.424 -74.2299 241.164ZM-67.5595 230.911C-67.802 230.491 -68.1659 230.191 -68.2265 229.832C-68.6308 228.433 -68.9946 227.014 -69.318 225.574C-69.6819 224.135 -69.3787 222.816 -68.3478 221.737C-66.4073 219.698 -64.5881 217.6 -62.7082 215.561C-62.6476 215.501 -62.405 215.621 -62.2837 215.621C-62.5263 218.679 -65.0732 225.994 -67.5595 230.911ZM24.7357 246.981C24.3113 247.76 23.6442 247.64 23.0984 247.7C18.3684 248.18 13.6385 247.88 9.02978 246.741C8.18081 246.501 7.27121 246.441 6.24031 245.602C9.21171 244.702 11.9405 244.103 14.6694 243.683C15.2151 243.623 15.8822 243.923 16.3673 244.162C18.7323 245.302 21.2186 246.141 23.8261 246.621C24.1293 246.681 24.3719 246.861 24.7357 246.981ZM21.7037 241.104C22.0675 240.325 22.2495 239.785 22.492 239.246C23.7048 236.847 25.5847 235.648 28.3742 235.948C30.254 236.128 32.1945 236.188 34.0138 236.847C33.5893 237.687 32.9222 237.567 32.3158 237.687C30.5572 238.226 28.7987 238.766 27.2826 239.845C25.706 241.044 24.008 241.344 21.7037 241.104ZM20.1877 241.404C18.1865 241.764 16.3673 242.064 14.5481 242.304C12.7289 242.603 10.9096 243.263 8.54465 243.143C13.214 240.385 17.5195 238.046 22.7346 236.787C21.825 238.526 21.0367 239.905 20.1877 241.404ZM28.4348 240.985C30.7998 238.946 33.5286 238.286 36.4394 238.046C36.8032 237.986 37.2884 238.106 37.6522 238.286C38.9257 239.006 40.1991 239.725 41.4726 240.505C41.6545 240.625 41.8364 240.805 42.0184 240.925C41.8364 241.104 41.7758 241.284 41.6545 241.284C37.2479 241.204 32.8414 241.104 28.4348 240.985Z" fill="url(#paint0_linear_74_70)" fill-opacity="0.7"/>
<defs>
<linearGradient id="paint0_linear_74_70" x1="115237" y1="79850.8" x2="-43.0039" y2="79850.8" gradientUnits="userSpaceOnUse">
<stop stop-color="#A87D56"/>
<stop offset="0.3" stop-color="#E8C597"/>
<stop offset="0.7" stop-color="#8D6531"/>
<stop offset="1" stop-color="#A87D56"/>
</linearGradient>
</defs>
</svg>
