<svg width="264" height="313" viewBox="0 0 264 313" fill="none" xmlns="http://www.w3.org/2000/svg">
<path fill-rule="evenodd" clip-rule="evenodd" d="M90.8224 301.341C91.67 300.855 92.3966 300.552 93.0627 300.188C96.4534 298.548 99.723 296.666 102.387 293.995C105.172 291.203 107.776 288.228 110.44 285.314C111.712 283.978 112.862 282.521 114.133 281.185C117.221 277.786 120.975 275.236 125.153 273.293C126.162 272.807 127.192 272.362 128.241 271.957C132.177 270.379 135.87 268.376 139.443 266.19C142.107 264.551 144.892 262.972 147.677 261.576C152.884 258.965 158.334 258.419 164.025 259.573C170.686 260.908 177.043 263.154 182.916 266.554C186.973 268.983 190.909 271.532 194.965 274.082C195.45 274.386 195.995 274.689 196.479 275.114C197.508 275.964 198.538 276.086 199.809 275.479C202.897 274.082 206.167 273.475 209.497 273.293C210.042 273.232 210.526 273.172 211.071 273.111C211.132 273.111 211.192 273.05 211.253 272.989C210.587 272.018 210.587 272.018 209.679 271.593C207.136 270.379 204.532 269.286 202.11 267.89C198.417 265.644 194.784 263.154 191.151 260.665C190.122 259.937 189.274 258.844 188.366 257.933C187.276 256.78 186.246 255.626 185.035 254.534C181.1 250.952 176.377 249.373 171.109 249.616C167.598 249.737 164.146 250.527 160.756 251.437C153.53 253.421 146.264 253.501 138.958 251.68C137.384 251.255 135.749 250.83 134.175 250.405C129.089 248.948 124.366 246.702 119.401 244.881C119.22 244.82 119.038 244.577 118.675 244.334C119.038 244.152 119.28 243.909 119.583 243.849C122.247 243.181 124.669 242.027 126.97 240.509C127.333 240.267 127.696 240.024 128.06 239.781C133.812 236.138 139.927 235.41 146.406 237.17C151.128 238.445 155.427 240.57 159.545 243.059C161.724 244.395 163.904 245.71 166.084 247.005C166.75 247.43 167.476 247.734 168.324 247.552C173.713 246.641 178.738 247.795 183.461 250.345C183.522 250.405 183.643 250.345 183.885 250.345C183.824 249.98 183.825 249.677 183.643 249.373C179.889 242.999 177.285 236.138 175.106 229.096C173.652 224.603 172.018 220.111 170.443 215.679C169.959 214.101 169.051 212.826 167.9 211.733C159.968 204.083 150.644 199.955 139.443 200.623C136.234 200.805 133.025 201.291 129.876 202.08C126.485 202.869 123.095 203.84 119.704 204.569C116.374 205.298 112.983 206.026 109.653 206.451C107.231 206.815 104.748 206.815 102.327 206.755C96.6754 206.674 91.4884 205.034 86.7656 201.837C83.9804 200.016 81.2557 198.194 78.41 196.434C74.4743 194.127 70.236 192.791 65.7554 192.366C63.7573 192.123 61.7592 192.002 59.7611 191.82C55.7044 191.395 51.8293 190.545 48.1359 188.845C45.2901 187.509 42.7471 185.809 40.4462 183.806C37.6005 181.317 34.8758 178.767 32.0906 176.217C29.0026 173.425 25.6724 171.057 22.1607 168.871C16.0453 165.047 9.5061 162.193 2.66415 159.886C1.87701 159.643 1.02935 159.279 0.242211 158.976C0.181664 158.976 0.121087 158.854 -6.92802e-06 158.672C0.787133 158.611 1.45312 158.49 2.11916 158.49C5.87316 158.429 9.62714 158.308 13.4417 158.308C20.7075 158.308 27.61 156.79 34.1492 153.39C37.2977 151.69 40.5673 150.173 43.8975 148.837C51.7687 145.619 60.0033 145.073 68.359 146.469C70.9626 146.894 73.445 147.926 75.8064 149.019C77.1385 149.687 78.4705 150.294 79.8632 150.901C83.6172 152.601 87.5528 153.694 91.6701 154.301C94.9397 154.726 98.2093 155.333 101.479 156.001C105.293 156.729 108.866 158.126 112.317 159.826C116.737 162.072 120.43 165.289 123.882 168.811C130.36 175.307 135.325 182.956 139.564 191.091C140.835 193.398 141.986 195.766 143.257 198.194C147.374 198.68 151.552 199.105 155.488 200.744C159.302 202.383 162.814 204.569 166.508 207.18C166.508 205.905 166.023 205.237 165.721 204.569C161.422 195.584 155.972 187.327 149.251 179.981C146.042 176.399 142.712 172.939 139.624 169.236C137.384 166.564 135.325 163.65 133.448 160.736C129.271 154.301 123.518 149.93 116.555 147.137C112.62 145.559 108.563 144.587 104.325 144.223C101.116 143.98 97.9065 143.616 94.6369 143.312C93.5471 143.252 92.3966 143.069 91.2462 143.009C85.8574 142.462 81.1347 140.277 77.0779 136.756C72.4763 132.87 67.9957 128.803 63.4546 124.796C61.9207 123.46 60.407 122.124 58.9134 120.789C58.6713 120.607 58.4896 120.303 58.1263 119.878C58.6107 119.696 58.9135 119.514 59.1556 119.514C63.6362 119.15 68.1168 119.21 72.4763 120.242C75.8064 121.032 79.1971 121.457 82.5878 121.699C84.5859 121.882 86.584 122.185 88.5821 122.489C93.3049 123.278 97.2405 125.585 100.813 128.742C105.414 132.87 109.229 137.606 112.196 143.252C118.19 145.012 123.942 147.441 128.968 152.055C128.907 151.387 128.968 151.023 128.907 150.719C127.575 147.076 126.304 143.434 124.85 139.913C122.973 135.42 120.007 131.777 116.253 128.742C113.669 126.678 111.025 124.674 108.321 122.732C103.295 119.028 98.3304 115.325 93.8498 110.954C88.0372 105.368 83.1933 99.1759 79.8632 91.7693C76.2908 84.0591 75.2615 76.0453 76.9568 67.6673C78.1073 61.8391 79.8631 56.2538 81.7401 50.7291C83.7382 44.7188 85.7969 38.7692 87.6739 32.7589C90.1564 24.563 91.3673 16.185 91.6701 7.62486C91.7912 5.07502 91.9728 2.5859 92.0939 0.0967813C92.8205 -0.20677 93.0021 0.278912 93.2443 0.521753C98.5726 6.7142 102.811 13.5138 105.899 21.0418C107.292 24.4416 108.745 27.8414 110.016 31.3019C112.378 37.98 116.253 43.5653 121.399 48.4222C123.942 50.7899 126.425 53.279 128.726 55.9502C134.599 62.8105 138.353 70.7028 139.14 79.8701C139.685 86.0018 138.232 91.7086 135.325 97.0511C133.146 100.997 130.663 104.701 127.938 108.282C125.819 111.136 123.821 114.111 122.186 117.328C121.157 119.271 120.309 121.335 119.946 123.46C119.704 124.674 119.704 125.888 119.643 127.163C119.603 128.135 119.946 128.985 120.673 129.713C124.306 133.234 126.546 137.545 128.302 142.159C128.968 143.98 129.694 145.741 130.239 147.623C132.843 156.365 137.626 163.832 143.742 170.511C146.89 174.032 150.099 177.492 153.248 181.074C160.816 189.816 166.447 199.773 170.867 210.458C173.35 216.347 175.469 222.418 177.346 228.55C178.92 233.71 180.737 238.87 183.219 243.727C186.125 249.555 189.698 254.898 194.42 259.512C197.387 262.365 200.778 264.733 204.471 266.554C208.831 268.74 213.372 270.682 217.853 272.686C218.095 272.807 218.458 272.868 219.064 273.111C218.821 272.565 218.821 272.2 218.64 272.018C214.341 267.708 211.858 262.487 210.163 256.78C209.315 253.987 208.407 251.255 207.559 248.463C205.804 242.999 203.2 237.96 199.628 233.406C195.571 228.307 191.393 223.207 187.276 218.047C185.035 215.254 182.856 212.401 181.1 209.244C179.707 206.755 178.375 204.144 177.285 201.473C173.895 193.095 173.652 184.595 176.983 176.096C178.617 171.907 180.434 167.839 182.19 163.711C183.219 161.222 184.309 158.733 185.278 156.183C187.094 151.387 188.063 146.409 188.123 141.309C188.123 139.123 188.063 136.938 188.063 134.752C188.063 131.717 188.063 128.742 188.184 125.767C188.305 119.21 190.424 113.261 193.573 107.554C196.116 103.061 198.659 98.5689 200.839 93.8942C202.292 90.7979 203.805 87.7017 205.682 84.8483C206.106 84.1198 206.651 83.452 207.136 82.7842C207.438 82.9663 207.681 83.027 207.681 83.1484C208.407 88.3088 210.647 92.8621 213.433 97.1725C215.067 99.6616 216.884 102.029 218.579 104.458C220.698 107.554 222.939 110.589 224.876 113.807C229.72 121.821 232.021 130.563 231.658 139.913C231.415 145.073 230.083 149.93 228.267 154.726C227.177 157.519 226.208 160.311 225.603 163.225C224.755 167.232 224.634 171.239 225.663 175.246C226.511 178.565 227.359 181.884 228.206 185.202C230.386 193.398 229.478 201.351 225.724 208.94C224.634 211.186 223.484 213.372 222.152 215.375C218.216 221.204 214.159 226.91 210.224 232.678C209.255 234.074 208.286 235.41 207.438 236.867C206.53 238.385 206.409 239.781 207.257 241.542C208.649 244.759 209.739 248.098 210.89 251.377C211.616 253.441 212.222 255.566 212.827 257.691C214.583 263.64 218.095 268.497 222.575 272.747C225.361 275.296 228.327 277.543 231.718 279.243C233.535 280.093 235.169 281.246 236.865 282.217C237.41 281.914 237.228 281.55 237.046 281.246C236.925 280.943 236.744 280.639 236.562 280.335C234.443 276.268 233.171 271.897 232.99 267.283C232.808 263.276 232.505 259.39 231.597 255.505C230.931 252.712 230.204 249.92 229.417 247.127C228.751 244.577 228.025 242.027 227.359 239.477C226.087 234.438 225.724 229.278 226.027 224.057C226.087 222.479 226.39 220.961 226.874 219.443C227.419 217.622 227.904 215.74 228.449 213.918C228.57 213.433 228.933 213.008 229.236 212.461C229.66 212.947 229.902 213.251 230.144 213.615C231.597 215.861 233.414 217.743 235.351 219.564C239.589 223.45 242.254 228.367 243.707 233.892C245.099 239.356 245.342 244.941 244.373 250.587C243.646 254.534 242.799 258.48 241.527 262.304C240.861 264.49 240.255 266.676 239.65 268.861C238.56 272.747 238.802 276.511 240.377 280.214C242.132 284.464 244.615 288.228 247.945 291.385C253.516 296.788 258.42 302.677 262.537 309.294C263.082 310.083 263.506 310.933 263.93 311.783C264.111 312.269 263.93 312.755 263.506 312.937C263.264 313.058 262.779 312.998 262.537 312.815C262.174 312.512 261.811 312.026 261.568 311.601C257.169 304.923 252.123 298.771 246.431 293.145C240.074 286.831 232.869 281.914 224.695 278.211C223.484 277.725 222.273 277.239 221.122 276.632C219.73 275.904 218.337 275.6 216.823 275.6C214.765 275.6 212.767 275.539 210.768 275.539C205.259 275.6 200.294 277.239 195.692 280.275C193.694 281.671 191.756 283.128 189.698 284.524C186.852 286.346 184.006 288.228 181.039 289.928C176.498 292.599 171.473 293.692 166.205 293.57C163.904 293.51 161.664 293.327 159.363 293.206C156.578 293.024 153.793 292.842 151.007 292.66C145.8 292.295 140.714 293.085 135.81 294.967C131.692 296.484 127.636 298.063 123.518 299.52C118.856 301.28 114.012 302.616 109.047 303.223C105.475 303.648 101.903 303.709 98.3304 303.102C96.4534 302.798 94.5764 302.434 92.6388 302.13C92.0333 302.009 91.4884 301.827 90.8224 301.341ZM235.291 262.426C235.291 262.385 235.311 262.325 235.351 262.244C235.351 262.244 235.331 262.224 235.291 262.183C235.291 262.224 235.291 262.264 235.291 262.304C235.291 262.345 235.291 262.385 235.291 262.426ZM235.654 261.637C236.441 256.173 236.623 250.648 236.199 245.123C236.138 244.274 235.775 243.606 235.109 243.12C233.232 241.663 231.597 239.963 230.204 238.081C230.083 237.838 229.781 237.717 229.417 237.474C229.538 238.142 229.538 238.688 229.66 239.113C230.144 241.177 230.689 243.241 231.294 245.245C232.869 250.466 234.201 255.687 234.867 261.151C234.927 261.515 235.169 261.88 235.291 262.183C235.472 262.001 235.654 261.819 235.654 261.637ZM235.169 262.851C235.25 262.851 235.331 262.831 235.412 262.79C235.371 262.669 235.331 262.547 235.291 262.426C235.25 262.547 235.21 262.689 235.169 262.851ZM193.028 115.325C191.635 117.51 191.151 119.332 190.727 122.61C190.303 126.435 190.243 130.26 190.303 134.145C190.344 137.545 190.323 140.965 190.243 144.405C190.182 145.559 190.303 146.591 190.909 147.623C194.178 153.33 196.055 159.522 197.145 165.957C197.751 169.114 198.477 172.271 199.204 175.428C199.809 178.099 200.839 180.649 202.352 182.895C202.594 183.199 202.958 183.381 203.382 183.745C204.108 181.438 204.653 179.314 205.38 177.249C206.893 172.878 208.407 168.507 210.042 164.136C210.526 162.861 210.647 161.586 210.405 160.311C210.163 159.158 209.981 158.004 209.618 156.972C208.589 154.24 207.62 151.508 206.348 148.958C204.774 145.68 202.837 142.523 201.02 139.305C199.204 136.149 197.266 132.992 195.874 129.592C194.118 125.403 193.028 121.092 193.088 116.539C193.088 116.114 193.028 115.75 193.028 115.325ZM184.006 165.411C183.34 166.929 182.856 167.9 182.371 168.932C180.797 172.453 179.344 176.035 178.194 179.739C176.498 185.445 176.498 191.091 178.133 196.798C179.182 200.441 180.656 203.901 182.553 207.18C184.369 210.397 186.489 213.433 188.789 216.286C193.936 222.721 199.385 228.914 204.108 235.653C204.169 235.653 204.411 235.592 204.714 235.531C203.2 226.85 200.778 218.29 200.415 209.547C200.294 209.304 200.233 209.244 200.173 209.183C199.648 208.738 199.103 208.293 198.538 207.847C192.665 203.233 188.668 197.284 186.852 189.938C185.823 185.749 185.157 181.56 185.096 177.189C185.035 174.76 185.035 172.332 184.975 169.843C184.914 168.568 184.854 167.232 184.006 165.411ZM202.897 185.627C199.264 179.981 198.84 178.949 197.327 172.028C196.661 169.053 196.116 166.018 195.51 163.043C194.602 158.429 193.088 154.058 190.969 149.93C190.727 149.505 190.424 149.08 189.94 148.351C189.698 149.141 189.577 149.505 189.516 149.93C188.83 153.208 187.821 156.365 186.489 159.401C186.004 160.554 185.641 161.708 185.096 162.8C184.733 163.59 184.733 164.318 185.035 165.107C185.762 166.746 185.944 168.446 186.004 170.207C186.045 172.595 186.085 174.963 186.125 177.31C186.186 181.56 186.852 185.688 187.881 189.756C189.577 196.677 193.27 202.262 198.719 206.694C199.083 206.997 199.446 207.483 200.233 207.24C200.475 205.48 200.294 203.658 200.475 201.837C200.596 200.016 200.717 198.194 200.96 196.373C201.202 194.552 201.505 192.73 201.807 190.909C202.171 189.088 202.534 187.327 202.897 185.627ZM106.323 91.83C107.291 90.373 107.958 89.3409 108.684 88.3695C110.924 85.3947 113.831 83.1484 116.737 80.9022C118.675 79.4451 120.612 77.9274 122.429 76.2882C123.942 74.9526 125.395 73.5562 126.304 71.7349C128.06 68.2137 128.726 64.4497 128.604 60.5642C128.604 59.5929 128.302 58.8643 127.636 58.1965C125.94 56.4359 124.306 54.6146 122.61 52.854C122.005 52.2469 121.399 51.6398 120.673 51.0327C120.309 51.3363 120.007 51.5791 119.825 51.8219C118.493 53.7647 116.798 55.4038 114.981 56.9216C114.012 57.812 113.044 58.7024 112.075 59.5929C109.108 62.5069 107.231 65.9674 106.928 70.2171C106.807 71.6742 106.747 73.1919 106.565 74.649C106.262 77.9881 105.838 81.2664 104.204 84.2412C103.961 84.6662 103.84 85.334 103.961 85.759C104.506 87.641 105.112 89.523 106.323 91.83ZM118.493 182.774C115.889 181.438 113.649 180.103 111.288 178.949C108.442 177.614 105.536 176.339 102.69 175.003C101.176 174.335 99.6624 174.275 98.1487 174.821C96.8167 175.246 95.4846 175.671 94.2131 176.339C92.4572 177.189 90.6407 178.16 89.0059 179.314C86.7656 180.831 84.5859 182.47 82.4667 184.17C79.2577 186.599 76.0486 189.027 72.1735 190.302C71.9313 190.363 71.7497 190.545 71.3258 190.848C71.9313 191.091 72.4157 191.334 72.8395 191.516C74.2322 192.063 75.6853 192.488 77.0174 193.155C78.5311 193.884 80.1053 194.37 81.8007 194.37C83.6777 194.37 85.6152 194.309 87.4922 194.066C90.7013 193.641 93.6076 192.488 96.4534 191.091C98.9359 189.877 101.418 188.541 103.961 187.327C108.321 185.263 112.801 183.624 117.706 183.26C117.827 183.26 117.948 183.078 118.493 182.774ZM106.989 98.8724C107.17 98.751 107.291 98.6295 107.231 98.5688C107.11 98.0832 106.989 97.5975 106.807 97.1118C103.901 90.0694 101.297 82.9056 99.3597 75.4989C99.057 74.3454 98.3909 73.7384 97.3616 73.3134C95.1819 72.4027 93.3049 71.0064 91.549 69.3672C90.2169 68.0316 88.7637 66.7567 87.3711 65.421C85.8574 64.0247 84.2226 62.9319 82.3456 62.1427C81.9218 61.9606 81.4374 61.8998 80.953 61.7784C79.9237 64.3283 78.5916 70.2171 78.6522 72.6456C78.6522 73.1919 78.7733 73.8598 78.9549 74.4062C80.953 80.0522 84.5254 84.4841 89.6114 87.5803C91.6701 88.7945 93.7287 89.948 95.7873 91.1015C99.178 92.9835 102.508 95.1084 105.415 97.7796C105.899 98.2653 106.504 98.5688 106.989 98.8724ZM95.6057 7.13917C95.4442 7.17965 95.2828 7.24036 95.1213 7.3213C95.2424 7.80699 95.3635 8.29267 95.4846 8.77835C98.2698 17.5206 99.4203 26.3843 98.3304 35.5516C97.9065 38.8299 97.7249 42.169 97.4827 45.5081C96.5745 56.8609 98.2698 67.9102 101.661 78.7166C101.782 79.0808 101.963 79.4451 102.387 80.3558C102.569 79.263 102.69 78.7773 102.69 78.3523C102.569 76.3489 102.448 74.2847 102.266 72.2813C102.084 69.6708 101.782 67.0602 101.661 64.4497C101.6 61.1713 102.327 58.0144 103.659 54.9789C104.506 52.9957 105.415 51.0125 106.383 49.0293C107.897 45.8116 109.108 42.594 109.471 39.0121C109.592 37.7372 109.653 36.4622 109.108 35.1873C107.292 30.8162 105.596 26.3843 103.78 22.0132C102.266 18.2492 100.45 14.6672 98.3304 11.2068C97.4827 9.81043 96.5139 8.4748 95.6057 7.13917ZM14.4105 160.858C15.4398 161.404 16.4086 161.465 17.3168 161.647C23.0689 162.679 28.6999 164.257 34.0887 166.625C37.3583 168.082 40.6279 169.721 43.8369 171.178C51.7082 174.821 59.8822 175.125 68.2379 173.485C68.4801 173.425 68.7223 173.303 68.9645 173.121C69.025 172.089 68.4195 171.3 67.8746 170.511C65.1499 166.443 61.2143 164.136 56.6126 162.922C54.4329 162.375 52.132 162.193 49.8918 161.89C47.1065 161.525 44.3213 161.343 41.5966 160.918C38.9931 160.554 36.6922 159.522 34.6336 158.004C34.0281 157.519 33.3621 157.094 32.9383 156.851C29.7292 157.822 26.8834 158.854 23.9165 159.522C20.8286 160.19 17.7406 160.433 14.4105 160.858ZM108.2 96.9297C108.805 98.5688 109.411 100.147 110.016 101.726C110.682 103.304 110.985 105.065 111.954 106.583C112.438 106.583 112.862 106.704 113.286 106.643C114.073 106.583 114.86 106.522 115.587 106.34C121.399 104.883 126.606 102.454 130.966 98.2653C132.661 96.6463 133.953 94.7846 134.841 92.6799C136.718 88.4302 137.323 83.9377 136.778 79.3237C136.718 78.8987 136.718 78.4738 136.112 78.3523C135.749 78.8987 135.325 79.5058 134.962 80.0522C133.327 82.7235 131.087 84.7876 128.423 86.3661C127.03 87.0946 125.577 87.8231 124.124 88.3695C121.702 89.3409 119.22 90.1908 116.798 91.1015C115.284 91.6479 113.831 92.1943 112.438 92.9228C110.743 93.7727 109.108 94.8655 108.2 96.9297ZM214.159 149.201C214.28 148.351 214.401 147.744 214.462 147.198C215.067 141.855 214.765 136.634 213.433 131.535C212.645 128.256 211.556 125.099 210.587 121.942C209.315 117.814 207.923 113.746 206.712 109.618C205.198 104.397 204.229 99.0545 204.35 93.5906C204.411 93.2871 204.229 92.9835 204.108 92.4371C202.837 95.1084 201.626 97.5368 200.536 100.026C200.112 100.937 199.688 101.969 199.446 102.94C198.417 107.736 198.598 112.532 199.385 117.328C200.536 124.189 203.321 130.381 207.136 136.149C209.739 140.095 212.222 144.162 213.614 148.716C213.675 148.776 213.735 148.837 214.159 149.201ZM226.693 190.059C226.269 190.666 226.027 190.909 225.906 191.152C224.695 193.884 222.939 196.312 221.243 198.741C216.642 205.298 210.829 210.519 203.927 214.465C203.382 214.768 202.897 215.072 202.413 215.315C202.594 218.593 204.048 226.425 205.682 233.285C205.743 233.467 205.925 233.649 206.046 233.953C206.348 233.71 206.53 233.649 206.712 233.467C211.677 227.093 216.157 220.414 220.517 213.676C222.152 211.186 223.484 208.515 224.634 205.783C226.572 201.412 227.298 196.737 226.995 191.941C226.935 191.456 226.814 190.97 226.693 190.059ZM77.6229 171.421C80.2264 171.118 82.83 170.814 85.4336 170.632C88.0372 170.45 90.7013 170.571 93.2443 171.057C95.7873 171.603 98.2698 172.21 100.934 172.757C100.813 172.393 100.813 172.089 100.692 171.907C99.1175 169.296 97.5432 166.625 95.969 164.075C95.0608 162.618 94.2131 161.161 93.1838 159.886C91.6095 158.004 89.672 156.426 87.25 155.879C83.1933 154.908 79.4393 153.33 75.7459 151.508C73.6267 150.537 71.4469 149.505 69.1461 149.019C68.7828 148.958 68.4195 149.08 67.9957 149.141C68.2379 149.444 68.2984 149.626 68.4195 149.748C68.5406 149.869 68.7223 149.93 68.8434 150.051C71.2653 152.237 72.8194 154.928 73.5056 158.126C73.8083 159.643 74.0505 161.222 74.3533 162.74C74.656 164.379 74.9587 166.018 75.3826 167.596C75.8064 169.053 76.3514 170.45 77.6229 171.421ZM208.77 171.968C208.407 172.696 208.104 173.242 207.923 173.789C207.317 175.489 206.772 177.128 206.288 178.828C204.653 184.11 203.26 189.391 202.473 194.916C202.413 195.462 202.05 196.13 202.776 196.555C210.284 194.673 219.972 186.902 224.15 179.253C223.726 177.007 223.12 174.7 222.818 172.393C222.575 169.964 222.696 167.536 222.636 164.925C222.212 165.229 221.849 165.411 221.546 165.714C220.698 166.504 219.972 167.354 219.124 168.082C216.278 170.753 213.13 172.696 208.77 171.968ZM182.311 277.725C177.709 276.754 173.592 276.086 169.535 275.114C166.81 274.507 164.328 274.75 161.785 275.6C157.002 277.178 152.521 279.303 148.585 282.46C145.376 285.071 142.409 287.863 139.322 290.535C139.14 290.717 139.14 290.96 138.958 291.385C139.624 291.324 140.169 291.263 140.654 291.142C143.439 290.474 146.345 290.231 149.251 290.292C150.947 290.353 152.703 290.474 154.459 290.535C155.67 290.535 156.941 290.474 158.091 290.292C161.422 289.867 164.57 288.713 167.416 286.892C169.172 285.799 170.928 284.646 172.623 283.432C175.348 281.489 178.133 279.668 181.221 278.393C181.463 278.332 181.645 278.15 182.311 277.725ZM225.845 121.153C224.755 121.578 224.271 122.367 223.907 123.157C223.423 124.189 222.999 125.221 222.636 126.313C221.97 128.074 221.425 129.956 220.698 131.717C219.972 133.538 218.942 135.116 217.368 136.331C216.884 136.695 216.46 137.12 215.976 137.545C215.976 138.031 215.915 138.456 215.976 138.88C216.399 144.891 215.673 150.78 213.917 156.486C212.827 160.008 211.556 163.468 210.405 166.929C210.224 167.596 210.042 168.204 209.8 169.175C210.466 168.811 210.89 168.629 211.192 168.386C213.614 166.443 215.673 164.197 217.066 161.404C218.458 158.611 219.73 155.697 221.001 152.844C222.939 148.351 224.937 143.859 228.691 140.459C229.417 139.913 229.357 139.123 229.357 138.334C229.478 132.627 228.327 127.163 226.329 121.882C226.208 121.699 226.027 121.457 225.845 121.153ZM82.4062 195.584C82.3658 195.746 82.3254 195.908 82.2851 196.07C83.4355 196.859 84.6464 197.648 85.7363 198.437C86.8867 199.348 88.1583 199.834 89.5509 200.076C93.426 200.926 97.2405 200.623 100.934 199.287C103.295 198.377 105.596 197.284 107.897 196.252C110.077 195.28 112.135 194.188 114.376 193.277C119.643 191.152 125.093 190.12 130.784 191.456C130.966 191.516 131.208 191.334 131.692 191.152C128.847 189.027 126.122 187.206 123.276 185.506C121.884 184.656 120.43 184.292 118.796 184.292C116.313 184.292 113.952 184.777 111.59 185.506C108.139 186.538 104.87 188.056 101.661 189.634C99.178 190.909 96.635 192.123 94.092 193.277C90.8224 194.673 87.4317 195.402 83.8593 195.462C83.3749 195.462 82.8906 195.523 82.4062 195.584ZM202.413 213.918C202.958 213.736 203.26 213.615 203.563 213.433C204.411 212.947 205.238 212.461 206.046 211.976C214.825 206.269 221.243 198.437 225.906 189.088C226.329 188.299 226.45 187.449 226.208 186.599C225.784 185.081 225.421 183.503 224.997 181.985C224.937 181.742 224.695 181.499 224.331 181.013C221.607 185.202 218.458 188.663 214.583 191.456C210.768 194.188 206.772 196.677 202.292 197.952C201.444 202.08 201.505 210.64 202.413 213.918ZM94.4553 10.0533C94.2938 10.0937 94.1324 10.1342 93.9709 10.1747C93.8498 11.0246 93.7287 11.8746 93.6682 12.7245C93.1838 19.0384 92.1545 25.2308 90.4591 31.3019C89.3692 35.1873 88.1582 39.0121 86.8867 42.8368C86.584 43.8689 86.584 44.6581 87.1895 45.5081C88.2188 47.0865 88.7032 48.8471 89.127 50.6684C89.4298 52.0648 89.672 53.4004 90.0353 54.736C91.004 58.1965 92.6994 61.232 95.4846 63.539C95.7873 63.7819 96.0295 64.2068 96.6956 63.9033C96.635 63.3569 96.635 62.7498 96.5745 62.1427C96.0295 57.9537 95.7873 53.7647 96.0295 49.5757C96.2717 44.6581 96.5139 39.8013 97.0589 34.9445C97.9065 27.2343 97.0589 19.7062 95.1819 12.2995C94.9397 11.5103 94.6975 10.7818 94.4553 10.0533ZM44.0791 151.387C45.0479 152.419 45.7745 153.208 46.501 153.876C48.7413 155.879 51.3449 156.972 54.1302 157.822C56.8548 158.611 59.5189 159.401 62.1225 160.433C66.9664 162.315 70.5387 165.654 72.4157 170.632C72.6579 171.178 72.9001 171.725 73.1423 172.271C74.2322 172.393 75.1404 172.15 75.988 171.725C74.0505 167.111 74.0505 167.111 73.0817 161.586C72.8395 160.129 72.5368 158.672 72.1735 157.215C71.568 154.908 70.2965 152.905 68.5406 151.205C66.8453 149.565 64.8472 148.23 62.3647 148.108C56.7337 147.926 51.1633 148.533 45.835 150.476C45.4112 150.658 44.9873 150.962 44.0791 151.387ZM97.3616 173.607C97.18 173.425 97.1194 173.242 96.9378 173.242C93.2443 172.21 89.4298 171.725 85.5547 171.968C83.1328 172.089 80.8925 172.757 78.8338 173.971C77.0174 175.064 75.322 176.278 73.6267 177.553C71.8708 178.828 70.1754 180.224 68.4801 181.56C65.0288 184.292 61.0932 185.931 56.7943 186.599C55.4016 186.842 54.009 186.963 52.6164 187.145C52.2531 187.145 51.8899 187.327 51.1027 187.509C53.9485 188.602 56.431 189.088 58.9134 189.391C61.4565 189.695 63.939 189.816 66.482 190.12C67.7535 190.302 68.9039 190.181 70.1149 189.816C72.9405 189.088 75.544 187.874 77.9256 186.174C79.8026 184.899 81.5585 183.442 83.3749 182.045C87.4922 178.828 91.7911 175.853 96.8167 174.092C96.9983 173.971 97.18 173.789 97.3616 173.607ZM82.4667 91.405C82.6484 92.7407 83.3144 93.6513 83.8593 94.6227C87.7344 101.604 93.0627 107.372 98.9964 112.593C103.961 116.903 109.471 120.546 114.678 124.492C114.921 124.674 115.223 124.735 115.647 124.856C115.647 124.371 115.647 124.128 115.587 123.885C114.133 119.878 112.922 115.75 111.833 111.561C111.651 110.772 111.167 109.982 110.682 109.254C108.684 106.158 105.838 104.033 102.508 102.515C100.268 101.483 97.9671 100.633 95.6662 99.7831C90.9435 98.0225 86.6446 95.6548 83.1933 91.83C83.0722 91.6479 82.83 91.5872 82.4667 91.405ZM91.6701 201.716C92.3361 202.141 92.6388 202.444 93.0021 202.626C95.424 203.537 97.9671 204.144 100.631 204.387C104.587 204.751 108.502 204.549 112.378 203.78C115.889 203.112 119.401 202.262 122.852 201.412C128.06 200.137 133.206 198.68 138.534 198.377C138.837 198.316 139.14 198.134 139.745 197.952C138.595 196.92 137.626 196.009 136.718 195.159C136.294 194.795 135.87 194.491 135.446 194.188C135.245 194.066 135.023 193.945 134.78 193.823C131.026 192.366 127.272 191.516 123.216 192.063C120.007 192.488 116.858 193.277 113.891 194.613C112.135 195.402 110.44 196.252 108.684 197.041C106.686 198.012 104.748 198.923 102.69 199.773C99.6624 200.987 96.5139 201.716 93.2443 201.594C92.8205 201.594 92.3966 201.655 91.6701 201.716ZM129.815 61.4749C129.694 62.2034 129.634 62.5677 129.573 62.9926C129.392 64.4497 129.271 65.9674 128.968 67.4245C128.241 70.6421 126.849 73.4955 124.427 75.8632C122.307 77.9274 119.946 79.7487 117.645 81.57C115.526 83.2699 113.407 84.9697 111.409 86.7911C109.713 88.4302 108.321 90.373 107.231 92.4978C106.747 93.4692 106.868 94.3191 107.897 95.1084C110.44 92.1943 113.891 90.9194 117.403 89.7659C118.13 89.523 118.856 89.2802 119.643 88.9766C121.641 88.1874 123.7 87.4589 125.698 86.6089C129.876 84.6662 133.146 81.7521 135.325 77.6238C135.991 76.2882 136.173 75.074 135.749 73.6169C134.599 69.6101 132.903 65.9067 130.663 62.3855C130.542 62.1427 130.239 61.8998 129.815 61.4749ZM150.341 263.033C151.007 263.276 151.189 263.337 151.31 263.397C155.488 263.579 159.181 264.976 162.572 267.343C164.994 269.043 167.476 270.743 169.898 272.443C171.836 273.779 173.955 274.811 176.377 275.175C178.072 275.418 179.768 275.843 181.524 276.146C185.459 276.814 189.455 277.239 193.512 277.118C193.815 277.118 194.118 276.936 194.723 276.754C193.997 276.207 193.573 275.782 193.028 275.479C190 273.597 186.973 271.715 183.946 269.772C179.889 267.283 175.59 265.279 171.109 263.762C167.719 262.669 164.267 261.758 160.635 261.394C157.244 261.03 153.914 261.455 150.341 263.033ZM110.743 39.3156C110.137 42.5333 109.169 45.5081 107.776 48.3615C107.13 49.8185 106.464 51.2553 105.778 52.6719C103.538 57.2252 102.327 62.0213 102.75 67.1209C102.952 69.0636 103.174 70.9861 103.416 72.8884C103.901 75.8632 103.961 78.838 103.235 81.7521C103.114 82.1771 103.114 82.602 103.114 83.027C103.659 82.7235 104.022 82.3592 104.143 81.8735C104.627 79.9308 105.112 77.9881 105.354 75.9846C105.657 73.9205 105.717 71.7956 105.899 69.7315C106.262 66.271 107.473 63.2355 109.774 60.6856C111.288 58.9857 112.983 57.468 114.618 55.8895C115.889 54.6146 117.221 53.3397 118.493 52.0041C119.098 51.4577 119.522 50.7899 119.462 49.7578C116.313 46.6616 113.346 43.2618 110.743 39.3156ZM135.628 277.725C132.843 276.571 130.179 276.146 127.454 276.207C125.153 276.207 122.973 276.693 121.096 278.211C119.946 279.121 118.675 279.971 117.645 281.003C115.344 283.371 113.104 285.86 110.924 288.288C107.17 292.417 103.416 296.424 98.6937 299.398C98.512 299.52 98.3909 299.702 98.0276 300.066C98.6331 300.066 98.9359 300.066 99.2386 300.006C103.961 298.974 108.442 297.334 112.499 294.602C115.042 292.902 117.524 291.142 119.886 289.199C124.79 285.374 129.573 281.428 134.962 278.332C135.083 278.271 135.204 278.089 135.628 277.725ZM197.811 105.126C195.571 108.282 194.239 111.136 194.118 114.536C194.057 118.239 194.36 121.882 195.45 125.403C196.6 129.045 198.235 132.445 200.112 135.724C201.626 138.273 203.139 140.823 204.653 143.373C207.196 147.866 209.497 152.54 210.89 157.579C211.011 157.944 211.192 158.308 211.374 158.733C211.616 158.551 211.858 158.429 211.919 158.308C212.222 157.336 212.524 156.304 212.888 155.333C213.614 153.451 213.433 151.569 212.827 149.687C211.616 145.801 209.86 142.22 207.62 138.82C206.106 136.513 204.714 134.206 203.382 131.838C199.143 124.067 197.266 115.689 197.811 106.765C197.872 106.461 197.872 106.097 197.811 105.126ZM66.9664 124.614C66.9664 124.735 66.9462 124.856 66.9058 124.978C69.4488 127.224 71.9919 129.47 74.5955 131.656C76.2302 133.113 77.9256 134.449 79.6815 135.845C83.4355 138.88 87.795 140.459 92.6388 140.823C97.3616 141.248 102.024 141.734 106.747 142.159C107.049 142.22 107.352 142.098 107.897 141.977C106.081 139.852 104.082 138.273 101.903 137.059C98.9964 135.42 96.0295 133.963 92.881 132.992C88.0372 131.474 83.1328 130.017 78.3495 128.499C75.322 127.588 72.3552 126.496 69.3883 125.524C68.6012 125.221 67.814 124.917 66.9664 124.614ZM103.84 159.036C104.264 159.765 104.385 160.068 104.567 160.372C105.354 161.89 106.323 163.347 107.049 164.986C107.776 166.625 108.26 168.446 108.926 170.146C109.713 172.15 110.561 174.214 111.409 176.217C111.954 177.431 112.862 178.342 114.133 178.949C116.434 180.163 118.735 181.438 121.097 182.653C121.52 182.895 121.944 183.32 122.55 182.895C123.034 181.803 123.155 180.588 123.034 179.374C122.913 177.189 122.671 175.003 122.368 172.818C122.065 170.693 121.218 168.811 119.28 167.596C118.917 167.354 118.614 166.989 118.311 166.746C114.194 163.165 109.592 160.615 103.84 159.036ZM69.7516 175.125C64.7261 175.428 59.9428 176.035 55.1594 175.61C50.1945 175.125 45.6534 173.425 41.2939 171.603C40.204 171.968 39.2958 172.332 38.3876 172.575C37.4188 172.757 36.45 172.878 35.5418 173C34.6336 173.182 33.6043 172.939 32.5749 173.485C34.9969 175.732 37.4188 177.735 39.5985 179.981C40.8095 181.196 42.1416 181.803 43.7764 181.924C45.169 181.985 46.5616 182.106 47.9542 182.045C52.3137 181.863 56.6126 181.135 60.851 179.799C63.6967 178.889 66.3609 177.614 68.8434 175.914C69.1461 175.732 69.4488 175.367 69.7516 175.125ZM101.479 300.977C105.657 301.28 109.774 301.038 113.77 300.066C114.174 299.945 114.577 299.803 114.981 299.641C120.188 297.699 124.972 295.027 129.089 291.263C130.542 289.887 131.975 288.471 133.388 287.014C136.839 283.432 140.048 279.668 144.044 276.632C144.165 276.511 144.226 276.329 144.468 275.782C143.742 276.025 143.257 276.207 142.773 276.389C140.048 277.3 137.384 278.514 134.901 279.91C131.571 281.853 128.483 284.099 125.456 286.528C122.792 288.592 120.188 290.778 117.464 292.842C112.801 296.302 107.836 299.216 102.145 300.673C101.903 300.734 101.721 300.855 101.479 300.977ZM215.189 131.96C215.491 131.352 215.794 130.988 215.855 130.563C216.097 129.106 216.399 127.649 216.399 126.192C216.339 124.189 216.157 122.185 215.915 120.182C215.552 117.632 215.007 115.143 214.583 112.654C214.099 109.8 213.978 106.947 214.583 104.033C214.704 103.729 214.644 103.365 214.704 103.183C213.13 100.815 211.495 98.5689 210.163 96.2619C208.831 93.9549 207.741 91.5265 206.409 88.7338C205.804 90.7372 205.743 92.3764 205.682 94.0156C205.622 98.0832 206.106 102.09 207.136 105.976C208.347 110.347 209.739 114.718 211.011 119.028C212.222 122.974 213.493 126.921 214.704 130.806C214.765 131.11 214.946 131.413 215.189 131.96ZM78.9549 77.2595C78.6522 80.1736 78.8338 83.027 80.1053 85.5769C82.4062 90.0087 85.7363 93.5299 90.0958 96.0797C92.5177 97.4761 95.1213 98.5081 97.7854 99.4795C101.903 100.876 105.838 102.758 109.168 105.672C109.35 105.793 109.592 105.793 110.077 105.915C109.774 105.186 109.592 104.701 109.35 104.276C107.352 100.694 104.506 97.8403 101.116 95.6548C97.6038 93.3478 93.9709 91.2229 90.338 89.1588C85.6758 86.4875 81.8007 83.027 79.4999 78.1095C79.3182 77.8059 79.1366 77.5024 78.9549 77.2595ZM124.124 296.849C125.153 296.484 125.759 296.242 126.425 296.059C128.483 295.27 130.481 294.42 132.54 293.692C134.175 293.145 135.568 292.295 136.839 291.263C138.474 289.806 140.169 288.349 141.743 286.892C147.253 281.671 153.369 277.361 160.635 274.811C160.816 274.75 160.937 274.568 161.301 274.204C160.756 274.143 160.453 274.022 160.09 274.022C157.668 274.102 155.226 274.183 152.763 274.264C151.068 274.325 149.494 274.811 148.04 275.6C146.587 276.389 145.134 277.239 143.802 278.211C141.138 280.214 138.898 282.703 136.597 285.132C132.903 288.956 129.271 292.902 124.85 295.877C124.669 296.059 124.548 296.302 124.124 296.849ZM161.785 291.02C168.748 291.81 174.984 290.96 180.858 287.499C185.157 285.01 189.213 282.096 193.149 279.121C193.27 279.061 193.27 278.818 193.331 278.575C191.635 278.453 189.94 278.514 188.366 278.271C186.186 277.968 184.127 278.332 182.19 279.182C180.737 279.85 179.283 280.457 177.951 281.246C175.953 282.46 173.955 283.796 172.018 285.132C168.99 287.196 165.963 289.26 162.39 290.413C162.269 290.474 162.148 290.656 161.785 291.02ZM168.99 273.475C168.687 273.05 168.566 272.807 168.385 272.686C165.721 270.804 163.117 268.922 160.392 267.222C156.699 264.915 152.642 264.065 148.343 264.429C147.193 264.551 146.103 264.794 145.134 265.401C143.015 266.736 140.956 267.951 138.837 269.286C138.655 269.347 138.595 269.65 138.413 269.893C138.777 269.954 139.079 270.015 139.322 270.015C143.499 269.833 147.435 270.743 151.25 272.565C151.916 272.868 152.521 272.929 153.248 272.868C158.031 272.443 162.814 272.686 167.598 273.475C167.961 273.536 168.385 273.475 168.99 273.475ZM98.2698 72.4027C98.2698 71.9777 98.3304 71.6135 98.2698 71.3099C98.0276 70.0957 97.7249 68.9422 97.4827 67.728C97.3011 66.6352 96.8167 65.846 95.9084 65.1782C92.215 62.6284 90.0353 58.9857 88.9454 54.6753C88.5821 53.4611 88.4004 52.1255 88.0977 50.8506C87.7748 49.5959 87.3913 48.3412 86.9473 47.0865C86.8262 46.7223 86.4629 46.4794 86.0996 45.933C84.707 48.3614 84.1621 50.8506 83.375 53.2183C82.5878 55.586 81.5585 57.893 81.3163 60.4428C81.7402 60.7463 82.1034 60.9892 82.5273 61.1713C84.9492 62.2034 87.0684 63.6604 88.9454 65.5425C90.4591 66.9995 92.0334 68.3958 93.6076 69.7922C94.9397 70.9457 96.3928 71.8563 98.2698 72.4027ZM105.899 137.848C105.354 136.998 105.112 136.634 104.87 136.27C102.932 133.781 100.571 131.717 98.2093 129.592C95.5451 127.224 92.4572 125.646 88.9454 124.978C86.584 124.492 84.1015 124.189 81.6796 123.946C78.5311 123.642 75.4431 123.278 72.3552 122.549C70.4782 122.185 68.6012 122.003 66.6636 121.76C66.3003 121.699 65.8765 121.821 65.0894 121.942C65.9976 122.489 66.482 122.853 67.0269 123.096C70.902 124.735 74.8376 126.192 78.8338 127.346C83.3951 128.641 87.9161 130.017 92.3966 131.474C94.4553 132.081 96.5139 132.931 98.4515 133.842C100.813 134.995 103.053 136.331 105.899 137.848ZM225.421 119.757C223.06 114.536 219.79 110.165 216.702 105.733C216.46 105.429 216.097 105.186 215.612 104.761C215.431 105.429 215.31 105.854 215.249 106.279C215.007 108.465 215.31 110.65 215.673 112.775C216.218 115.871 216.763 118.968 217.187 122.124C217.732 126.071 217.55 129.956 215.915 133.72C215.733 134.084 215.612 134.509 215.612 134.934C215.612 135.299 215.794 135.602 215.915 135.966C217.913 134.57 218.821 133.599 219.669 131.595C220.113 130.462 220.517 129.309 220.88 128.135C221.849 125.099 222.878 122.124 225.421 119.757ZM71.9313 172.453C71.2653 170.328 70.3571 168.446 69.0855 166.746C67.2085 164.257 64.7261 162.497 61.8198 161.404C58.974 160.372 56.0071 159.461 53.1008 158.551C50.3156 157.701 47.7726 156.365 45.5928 154.422C44.7452 153.633 43.958 152.662 43.1104 151.812C40.3251 152.601 35.9051 154.847 34.2703 156.244C34.6336 156.972 35.2996 157.336 35.9657 157.761C38.0848 159.097 40.3857 159.826 42.8682 160.129C45.5323 160.433 48.1964 160.675 50.9211 160.918C53.343 161.1 55.7649 161.465 58.0658 162.254C63.2729 164.015 67.3902 166.989 69.8727 171.968C69.9938 172.15 70.0543 172.271 70.1149 172.453C70.5993 173.06 71.1442 173 71.9313 172.453ZM110.258 176.824C108.926 173.06 107.776 169.782 106.565 166.504C106.081 165.229 105.536 163.893 104.809 162.74C104.143 161.525 103.235 160.433 102.327 159.34C101.721 158.611 100.873 158.126 99.9046 158.004C97.6038 157.579 95.2424 157.154 92.9416 156.79C92.5783 156.729 92.215 156.729 92.0939 157.154C93.0627 158.308 94.1526 159.34 95.0002 160.493C95.9084 161.768 96.635 163.165 97.4222 164.561C98.0276 165.593 98.5726 166.746 99.2386 167.718C100.369 169.499 101.58 171.219 102.871 172.878C103.356 173.485 103.961 174.032 104.627 174.335C106.323 175.185 108.139 175.914 110.258 176.824ZM112.196 107.858C113.831 113.139 114.739 118.543 117.161 123.642C117.403 123.278 117.645 123.096 117.645 122.853C118.614 118.603 120.673 114.839 123.095 111.318C125.093 108.343 127.151 105.429 129.21 102.454C129.513 102.029 129.755 101.483 129.997 101.058C124.608 104.701 118.796 107.129 112.196 107.858ZM209.86 170.814C211.858 171.3 213.372 170.814 214.704 170.025C216.036 169.236 217.308 168.264 218.519 167.232C219.851 166.139 221.001 164.804 222.333 163.65C222.999 163.043 223.363 162.375 223.665 161.525C224.432 159.016 225.24 156.527 226.087 154.058C227.298 150.598 228.449 147.076 228.994 143.434C229.054 143.009 228.933 142.523 228.933 141.916C226.814 143.798 225.845 145.012 224.816 147.198C223.12 150.84 221.486 154.544 219.851 158.186C218.337 161.465 216.702 164.682 214.038 167.171C212.827 168.386 211.495 169.478 209.86 170.814ZM123.397 183.988C128.604 187.327 133.509 190.666 138.05 194.552C138.111 194.613 138.171 194.613 138.292 194.613C138.353 194.613 138.413 194.552 138.474 194.491C136.96 189.209 127.333 174.821 123.397 172.21C124.063 176.157 124.487 179.981 123.397 183.988ZM43.8975 183.017C44.0791 183.563 44.0791 183.745 44.2002 183.806C45.8956 185.324 47.8331 186.174 50.1339 186.174C56.8548 186.174 63.0913 184.595 68.4801 180.346C71.3864 178.039 74.4138 175.792 77.3807 173.485C77.3807 173.425 77.3807 173.303 77.3807 173.06C75.3826 173.364 73.5056 173.607 71.8708 175.003C68.8433 177.553 65.3921 179.435 61.6381 180.649C56.3704 182.349 50.9816 183.32 45.4112 183.078C44.9873 183.017 44.5635 183.017 43.8975 183.017ZM237.834 248.827C240.377 246.156 241.648 243.059 242.254 239.66C242.314 239.235 242.314 238.749 242.254 238.324C241.83 235.106 240.982 231.949 239.468 229.035C239.287 228.792 239.166 228.367 238.56 228.55C238.257 229.521 238.015 230.614 237.652 231.707C237.289 232.86 236.804 234.013 236.38 235.106C236.078 235.835 236.199 236.503 236.38 237.17C237.168 240.509 237.531 243.909 237.652 247.309C237.712 247.855 237.773 248.341 237.834 248.827ZM228.872 219.261C228.327 222.843 228.327 225.878 228.206 228.914C228.085 232.556 229.357 235.531 231.658 238.202C232.566 239.295 233.535 240.267 234.503 241.299C234.806 241.542 235.048 241.967 235.775 241.663C235.714 241.117 235.714 240.509 235.593 239.963C234.927 237.353 234.443 234.681 233.535 232.131C232.203 228.003 230.568 223.936 228.872 219.261ZM149.433 272.989C146.527 271.654 143.923 271.229 141.199 271.047C136.96 270.743 133.085 272.079 129.392 273.961C128.907 274.204 128.241 274.204 128.06 275.054C130.966 275.236 133.691 275.782 136.355 276.754C137.142 277.057 137.868 276.936 138.595 276.571C141.743 275.195 144.993 274.183 148.343 273.536C148.585 273.475 148.767 273.293 149.433 272.989ZM16.7113 163.529C17.7204 164.015 18.7498 164.48 19.7993 164.925C23.19 166.564 26.3385 168.689 29.3659 170.936C30.0925 171.482 30.8796 172.028 31.9089 172.089C34.0887 172.15 36.2684 172.089 38.3876 171.482C38.7509 171.36 38.9931 171.057 39.3564 170.814C33.5437 167.232 21.8579 163.165 16.7113 163.529ZM150.462 246.156C146.527 244.82 131.087 244.638 128.12 245.791C128.362 245.973 128.604 246.156 128.786 246.277C131.571 247.127 134.296 247.977 137.081 248.766C137.747 248.948 138.474 249.009 139.14 249.009C142.773 248.888 146.285 248.159 149.615 246.763C149.857 246.641 150.099 246.398 150.462 246.156ZM242.375 243.849C242.072 244.395 241.951 244.699 241.769 244.941C240.74 246.763 239.771 248.645 238.681 250.405C238.076 251.316 237.773 252.227 237.712 253.319C237.47 256.476 237.168 259.633 236.925 262.729C236.764 264.672 236.623 266.595 236.501 268.497C236.501 268.922 236.32 269.408 236.925 269.65C238.015 266.048 239.105 262.446 240.195 258.844C240.437 257.933 240.74 256.962 240.922 256.051C241.466 253.016 242.011 250.041 242.496 247.005C242.677 246.095 242.799 245.123 242.375 243.849ZM235.714 233.467C235.957 233.042 236.32 232.739 236.38 232.374C236.784 230.958 237.147 229.521 237.47 228.064C237.834 226.607 237.531 225.271 236.501 224.178C234.564 222.114 232.747 219.989 230.871 217.925C230.81 217.865 230.568 217.986 230.447 217.986C230.689 221.082 233.232 228.489 235.714 233.467ZM143.56 249.737C143.984 250.527 144.65 250.405 145.195 250.466C149.917 250.952 154.64 250.648 159.242 249.495C160.09 249.252 160.998 249.191 162.027 248.341C159.06 247.43 156.336 246.823 153.611 246.398C153.066 246.338 152.4 246.641 151.916 246.884C149.554 248.038 147.072 248.887 144.468 249.373C144.165 249.434 143.923 249.616 143.56 249.737ZM146.587 243.788C146.224 242.999 146.042 242.452 145.8 241.906C144.589 239.477 142.712 238.263 139.927 238.567C138.05 238.749 136.112 238.81 134.296 239.477C134.72 240.327 135.386 240.206 135.991 240.327C137.747 240.874 139.503 241.42 141.017 242.513C142.591 243.727 144.286 244.031 146.587 243.788ZM148.101 244.091C150.099 244.456 151.916 244.759 153.732 245.002C155.548 245.306 157.365 245.973 159.726 245.852C155.064 243.059 150.765 240.692 145.558 239.417C146.466 241.177 147.253 242.574 148.101 244.091ZM139.866 243.666C137.505 241.602 134.78 240.934 131.874 240.692C131.511 240.631 131.026 240.752 130.663 240.934C129.392 241.663 128.12 242.392 126.849 243.181C126.667 243.302 126.485 243.484 126.304 243.606C126.485 243.788 126.546 243.97 126.667 243.97C131.067 243.889 135.467 243.788 139.866 243.666Z" fill="url(#paint0_linear_74_67)" fill-opacity="0.7"/>
<defs>
<linearGradient id="paint0_linear_74_67" x1="-114893" y1="80847.9" x2="211.196" y2="80847.9" gradientUnits="userSpaceOnUse">
<stop stop-color="#A87D56"/>
<stop offset="0.3" stop-color="#E8C597"/>
<stop offset="0.7" stop-color="#8D6531"/>
<stop offset="1" stop-color="#A87D56"/>
</linearGradient>
</defs>
</svg>
