<svg width="41" height="40" viewBox="0 0 41 40" fill="none" xmlns="http://www.w3.org/2000/svg">
<path d="M33.4833 35L22.7208 24.5C21.8667 25.1667 20.8844 25.6944 19.774 26.0833C18.6635 26.4722 17.4819 26.6667 16.2292 26.6667C13.1257 26.6667 10.4994 25.6178 8.35033 23.52C6.20125 21.4222 5.12614 18.86 5.125 15.8333C5.125 12.8056 6.20011 10.2433 8.35033 8.14667C10.5006 6.05 13.1268 5.00111 16.2292 5C19.3326 5 21.9595 6.04889 24.1097 8.14667C26.2599 10.2444 27.3345 12.8067 27.3333 15.8333C27.3333 17.0556 27.134 18.2083 26.7354 19.2917C26.3368 20.375 25.7958 21.3333 25.1125 22.1667L35.875 32.6667L33.4833 35ZM16.2292 23.3333C18.3646 23.3333 20.18 22.6044 21.6753 21.1467C23.1707 19.6889 23.9178 17.9178 23.9167 15.8333C23.9167 13.75 23.1696 11.9794 21.6753 10.5217C20.1811 9.06389 18.3657 8.33444 16.2292 8.33333C14.0938 8.33333 12.2789 9.06278 10.7847 10.5217C9.29049 11.9806 8.54281 13.7511 8.54167 15.8333C8.54167 17.9167 9.28935 19.6878 10.7847 21.1467C12.2801 22.6056 14.0949 23.3344 16.2292 23.3333Z" fill="black"/>
</svg>
