<svg width="362" height="520" viewBox="0 0 362 520" fill="none" xmlns="http://www.w3.org/2000/svg">
<g filter="url(#filter0_f_128_178)">
<path d="M4.5 34C4.5 17.4315 17.9315 4 34.5 4H327.5C344.069 4 357.5 17.4315 357.5 34V486C357.5 502.569 344.069 516 327.5 516H34.5C17.9315 516 4.5 502.569 4.5 486V34Z" fill="#FFFEFE"/>
<path d="M5 34C5 17.7076 18.2076 4.5 34.5 4.5H327.5C343.792 4.5 357 17.7076 357 34V486C357 502.292 343.792 515.5 327.5 515.5H34.5C18.2076 515.5 5 502.292 5 486V34Z" stroke="black"/>
</g>
<defs>
<filter id="filter0_f_128_178" x="0.5" y="0" width="361" height="520" filterUnits="userSpaceOnUse" color-interpolation-filters="sRGB">
<feFlood flood-opacity="0" result="BackgroundImageFix"/>
<feBlend mode="normal" in="SourceGraphic" in2="BackgroundImageFix" result="shape"/>
<feGaussianBlur stdDeviation="2" result="effect1_foregroundBlur_128_178"/>
</filter>
</defs>
</svg>
