<svg width="23" height="23" viewBox="0 0 23 23" fill="none" xmlns="http://www.w3.org/2000/svg">
<g clip-path="url(#clip0_228_270)">
<path d="M22.2812 11.5C22.2812 6.79221 19.2984 2.80315 15.0938 1.32971V21.6703C19.2984 20.1969 22.2812 16.2078 22.2812 11.5Z" fill="#FFCE31"/>
<path d="M0.71875 11.5C0.71875 16.2078 3.7375 20.1969 7.90625 21.6703V1.32971C3.7375 2.80315 0.71875 6.79221 0.71875 11.5Z" fill="#83BF4F"/>
<path d="M15.0938 1.32969C13.9797 0.934375 12.7578 0.71875 11.5 0.71875C10.2422 0.71875 9.02031 0.934375 7.90625 1.32969V21.6703C9.02031 22.0656 10.2422 22.2812 11.5 22.2812C12.7578 22.2812 13.9797 22.0656 15.0938 21.6703V1.32969Z" fill="#C94747"/>
<path d="M11.5 13.0094L13.4047 14.375L12.6859 12.1828L14.5547 10.8172H12.2188L11.5 8.625L10.7812 10.8172H8.44531L10.3141 12.1828L9.59531 14.375L11.5 13.0094Z" fill="#FFCE31"/>
</g>
<defs>
<clipPath id="clip0_228_270">
<rect width="23" height="23" fill="white"/>
</clipPath>
</defs>
</svg>
