<svg width="37" height="33" viewBox="0 0 37 33" fill="none" xmlns="http://www.w3.org/2000/svg">
<path d="M33.6168 13.8071H32.375V13.75H18.5V19.25H27.2127C25.9416 22.4517 22.526 24.75 18.5 24.75C13.3917 24.75 9.24998 21.0561 9.24998 16.5C9.24998 11.9439 13.3917 8.25 18.5 8.25C20.858 8.25 23.0032 9.04337 24.6366 10.3393L28.9972 6.45012C26.2438 4.16144 22.5607 2.75 18.5 2.75C9.98613 2.75 3.08331 8.90656 3.08331 16.5C3.08331 24.0934 9.98613 30.25 18.5 30.25C27.0138 30.25 33.9166 24.0934 33.9166 16.5C33.9166 15.5781 33.8103 14.6781 33.6168 13.8071Z" fill="#FFC107"/>
<path d="M4.8609 10.1001L9.92605 13.4131C11.2966 10.3868 14.6158 8.25 18.5 8.25C20.858 8.25 23.0032 9.04337 24.6366 10.3393L28.9972 6.45012C26.2438 4.16144 22.5608 2.75 18.5 2.75C12.5785 2.75 7.44319 5.73169 4.8609 10.1001Z" fill="#FF3D00"/>
<path d="M18.5 30.25C22.4821 30.25 26.1004 28.8908 28.8361 26.6805L24.0647 23.0794C22.4648 24.1645 20.5099 24.7514 18.5 24.75C14.4901 24.75 11.0854 22.4696 9.8027 19.2871L4.77533 22.7418C7.32679 27.1947 12.5083 30.25 18.5 30.25Z" fill="#4CAF50"/>
<path d="M33.6168 13.8071H32.375V13.75H18.5V19.25H27.2127C26.6047 20.7738 25.5095 22.1053 24.0623 23.0801L24.0646 23.0787L28.8361 26.6798C28.4985 26.9534 33.9167 23.375 33.9167 16.5C33.9167 15.5781 33.8103 14.6781 33.6168 13.8071Z" fill="#1976D2"/>
</svg>
