<svg width="29" height="31" viewBox="0 0 29 31" fill="none" xmlns="http://www.w3.org/2000/svg">
<path d="M14.4604 15.9286C13.1653 15.9286 12.0567 15.439 11.1345 14.4598C10.2123 13.4807 9.75117 12.3036 9.75117 10.9286C9.75117 9.55359 10.2123 8.37651 11.1345 7.39734C12.0567 6.41817 13.1653 5.92859 14.4604 5.92859C15.7554 5.92859 16.864 6.41817 17.7862 7.39734C18.7084 8.37651 19.1695 9.55359 19.1695 10.9286C19.1695 12.3036 18.7084 13.4807 17.7862 14.4598C16.864 15.439 15.7554 15.9286 14.4604 15.9286ZM5.04199 25.9286V22.4286C5.04199 21.7203 5.21388 21.0694 5.55765 20.4761C5.90142 19.8828 6.35742 19.4294 6.92566 19.1161C8.1422 18.4703 9.37836 17.9861 10.6341 17.6636C11.8899 17.3411 13.1653 17.1794 14.4604 17.1786C15.7554 17.1786 17.0308 17.3403 18.2866 17.6636C19.5423 17.9869 20.7785 18.4711 21.995 19.1161C22.5641 19.4286 23.0205 19.8819 23.3642 20.4761C23.708 21.0703 23.8795 21.7211 23.8787 22.4286V25.9286H5.04199Z" fill="white"/>
</svg>
