<svg width="37" height="33" viewBox="0 0 37 33" fill="none" xmlns="http://www.w3.org/2000/svg">
<g clip-path="url(#clip0_76_76)">
<path d="M20.1403 9.19187L21.2889 8.77112C22.2216 8.44112 23.4272 8.10425 24.8501 8.31737C27.7654 8.75462 29.7758 10.1585 30.9736 12.0202C31.4361 12.738 31.0631 13.684 30.1997 13.9851C29.4601 14.2432 28.8279 14.6986 28.3895 15.2892C27.951 15.8798 27.7278 16.5768 27.7502 17.2848C27.7726 17.9929 28.0397 18.6775 28.5148 19.245C28.9899 19.8126 29.65 20.2355 30.4048 20.4559C31.2033 20.6896 31.6535 21.4802 31.3914 22.1925C30.71 24.0377 29.7295 25.7414 28.5686 27.1164C27.4216 28.4749 26.0218 29.6024 24.4632 30.1537C23.4457 30.5112 22.3542 30.3779 21.3105 30.1469L20.6907 29.9997L19.7703 29.7619C19.3526 29.6532 18.9224 29.5597 18.5 29.5597C18.0761 29.5597 17.6475 29.6532 17.2297 29.7619L16.3093 29.9997L15.6896 30.1469C14.6458 30.3779 13.5528 30.5126 12.5368 30.1537C10.5743 29.4607 8.84301 27.8437 7.53414 25.9366C6.11714 23.8365 5.18225 21.5061 4.7838 19.0809C4.43384 16.9441 4.62347 14.5447 5.73193 12.5152C6.87276 10.4239 8.96326 8.79587 12.1499 8.31737C13.4449 8.1235 14.558 8.38337 15.4491 8.68175L15.9593 8.8605L16.8597 9.19187C17.4763 9.40775 17.962 9.53425 18.5 9.53425C19.0365 9.53425 19.5237 9.40775 20.1403 9.19187ZM18.1423 3.806C19.647 2.46262 21.958 2.34712 22.5022 2.83387C23.0479 3.31925 22.9184 5.38037 21.4122 6.72237C19.9076 8.06437 17.5966 8.17987 17.0524 7.6945C16.5066 7.20912 16.6361 5.148 18.1423 3.806Z" fill="black"/>
</g>
<defs>
<clipPath id="clip0_76_76">
<rect width="37" height="33" fill="white"/>
</clipPath>
</defs>
</svg>
