<svg width="650" height="57" viewBox="0 0 650 57" fill="none" xmlns="http://www.w3.org/2000/svg">
<g style="mix-blend-mode:plus-darker">
<path d="M1 12C1 5.64872 6.14873 0.5 12.5 0.5H637.5C643.851 0.5 649 5.64873 649 12V45C649 51.3513 643.851 56.5 637.5 56.5H12.5C6.14871 56.5 1 51.3513 1 45V12Z" fill="#F3EEEE"/>
<path d="M1 12C1 5.64872 6.14873 0.5 12.5 0.5H637.5C643.851 0.5 649 5.64873 649 12V45C649 51.3513 643.851 56.5 637.5 56.5H12.5C6.14871 56.5 1 51.3513 1 45V12Z" stroke="black"/>
</g>
</svg>
